<?xml version="1.0" encoding="UTF-8"?>
<svg version="1.1" xmlns="http://www.w3.org/2000/svg" width="1024" height="1024">
<path d="M0 0 C337.92 0 675.84 0 1024 0 C1024 337.92 1024 675.84 1024 1024 C686.08 1024 348.16 1024 0 1024 C0 686.08 0 348.16 0 0 Z " fill="#0D1321" transform="translate(0,0)"/>
<path d="M0 0 C2.70521487 0.00542177 5.41026828 -0.00000484 8.11547852 -0.00634766 C9.83618201 -0.0056879 11.5568854 -0.00440888 13.27758789 -0.00244141 C14.08583511 -0.00446564 14.89408234 -0.00648987 15.7268219 -0.00857544 C21.38742976 0.01537015 21.38742976 0.01537015 23.61743164 1.13037109 C25.65359748 1.44557104 27.69691927 1.715013 29.74243164 1.96240234 C30.99838135 2.119104 32.25433105 2.27580566 33.54833984 2.43725586 C34.21322418 2.51952423 34.87810852 2.6017926 35.56314087 2.68655396 C50.8789397 4.59753062 66.06622952 6.75852772 80.61743164 12.13037109 C82.0744893 12.61340296 83.53287938 13.09243025 84.99243164 13.56787109 C88.37970931 14.70089777 91.75310623 15.86833446 95.11743164 17.06787109 C96.37040039 17.51453125 96.37040039 17.51453125 97.64868164 17.97021484 C101.70159156 19.55404938 105.65459885 21.33470003 109.61743164 23.13037109 C110.40939941 23.48752197 111.20136719 23.84467285 112.01733398 24.21264648 C124.79127872 30.01933359 136.86469178 36.46288593 148.61743164 44.13037109 C149.4977002 44.70005615 149.4977002 44.70005615 150.39575195 45.28125 C169.51381087 57.7522275 187.71551184 73.39279373 202.56274414 90.74755859 C204.09507678 92.52459835 205.65738581 94.27587285 207.23461914 96.01318359 C221.30869171 111.68441549 234.41191564 130.68785678 242.61743164 150.13037109 C243.36378435 151.45694484 244.13234695 152.77145336 244.92993164 154.06787109 C248.24230021 159.95543421 250.42605378 166.23549587 252.69604492 172.57373047 C253.74671197 175.48909489 254.82052113 178.39549275 255.89477539 181.30224609 C256.69873471 183.49474407 257.5021203 185.68745251 258.30493164 187.88037109 C258.8758252 189.42337891 258.8758252 189.42337891 259.45825195 190.99755859 C268.35335381 215.51198908 271.14359711 241.16507387 270.89868164 267.09741211 C270.8667784 270.51280333 270.85762072 273.92773445 270.85180664 277.34326172 C270.84266251 279.51839765 270.83229518 281.69352887 270.82055664 283.86865234 C270.81630676 284.88816483 270.81205688 285.90767731 270.80767822 286.95808411 C270.79326691 288.35301338 270.79326691 288.35301338 270.77856445 289.77612305 C270.77173645 290.59579056 270.76490845 291.41545807 270.75787354 292.25996399 C270.61743164 294.13037109 270.61743164 294.13037109 269.61743164 295.13037109 C269.34376996 296.61876891 269.12631066 298.11759505 268.93383789 299.61865234 C268.81194092 300.54734131 268.69004395 301.47603027 268.56445312 302.43286133 C268.43756104 303.42616455 268.31066895 304.41946777 268.17993164 305.44287109 C267.91289936 307.46125897 267.64467941 309.47949009 267.37524414 311.49755859 C267.24537109 312.47176758 267.11549805 313.44597656 266.98168945 314.44970703 C265.38100425 326.22954856 262.34355134 337.1505795 258.84106445 348.49926758 C258.44379676 349.78909143 258.048272 351.07945347 257.65454102 352.37036133 C254.44138289 362.9031259 250.87737847 373.00545237 245.86743164 382.81787109 C245.52454102 383.49503174 245.18165039 384.17219238 244.82836914 384.86987305 C243.76504704 386.96037788 242.69307768 389.04618355 241.61743164 391.13037109 C241.11373047 392.10876953 241.11373047 392.10876953 240.59985352 393.10693359 C231.09986947 411.47480881 219.76437637 427.91198112 206.55493164 443.79833984 C205.23749257 445.38404776 203.94650355 446.99202673 202.67993164 448.61865234 C200.4727669 451.30654425 198.1044864 453.70044623 195.61743164 456.13037109 C194.82723633 456.93216797 194.03704102 457.73396484 193.22290039 458.56005859 C170.99684353 481.0374602 145.33977305 498.72100505 116.93774414 512.47412109 C113.71134207 514.01448756 113.71134207 514.01448756 111.18383789 515.66552734 C107.74675853 517.62733063 104.17239411 518.81149678 100.42993164 520.06787109 C95.80176958 521.63882089 91.2363593 523.26885254 86.71899414 525.13818359 C58.40662359 536.55494397 26.3998765 538.5970598 -3.75756836 538.56787109 C-4.83810486 538.56809265 -5.91864136 538.56831421 -7.03192139 538.56854248 C-20.93411054 538.53810224 -33.96643748 538.10552098 -47.38256836 534.13037109 C-49.03386312 533.83314501 -50.6878884 533.55092724 -52.34350586 533.27880859 C-58.49084195 532.18103377 -64.40316933 530.53843096 -70.38256836 528.75537109 C-71.38545898 528.46404297 -72.38834961 528.17271484 -73.42163086 527.87255859 C-83.76238875 524.82644387 -93.66269338 521.15481603 -103.44506836 516.63037109 C-110.0222071 513.60271728 -116.63593785 510.76127921 -123.38256836 508.13037109 C-123.38256836 507.47037109 -123.38256836 506.81037109 -123.38256836 506.13037109 C-124.34291992 505.92154297 -125.30327148 505.71271484 -126.29272461 505.49755859 C-131.36659005 504.03842439 -135.46623562 501.16592807 -139.82006836 498.25537109 C-141.13515381 497.38634155 -141.13515381 497.38634155 -142.47680664 496.49975586 C-167.38659391 479.88193098 -191.38382367 460.16079996 -209.12768555 435.84277344 C-210.45435034 434.03241802 -211.8105515 432.24700158 -213.17163086 430.46240234 C-221.9959473 418.79931422 -229.17496085 406.40502793 -236.25756836 393.63037109 C-236.72227539 392.79352783 -237.18698242 391.95668457 -237.66577148 391.09448242 C-240.17474648 386.51872549 -242.38622922 381.95036109 -244.38256836 377.13037109 C-245.0137093 375.87288876 -245.65692497 374.62127461 -246.32006836 373.38037109 C-248.80960298 368.46781614 -250.6028462 363.3341975 -252.38256836 358.13037109 C-252.60726807 357.49993896 -252.83196777 356.86950684 -253.06347656 356.2199707 C-255.30735901 349.77072916 -256.89562177 343.21345146 -258.44506836 336.56787109 C-258.9564837 334.39983075 -259.46819585 332.2318604 -259.98022461 330.06396484 C-260.31292358 328.64168579 -260.31292358 328.64168579 -260.65234375 327.19067383 C-261.19831448 324.9025618 -261.77626639 322.62203863 -262.37036133 320.34594727 C-266.28633272 304.65992577 -266.89113443 288.68548136 -266.82861328 272.59277344 C-266.82009259 269.26483355 -266.84902711 265.93861251 -266.88061523 262.61083984 C-266.93782214 244.68160171 -264.46154456 227.60912352 -260.09350586 210.23974609 C-259.68337199 208.44597378 -259.30662903 206.64239632 -259.02368164 204.82421875 C-257.763256 196.85512298 -255.28629674 189.56383633 -252.50756836 182.00537109 C-252.0731543 180.79494141 -251.63874023 179.58451172 -251.19116211 178.33740234 C-248.16870472 169.99614606 -244.87419324 161.89954165 -240.82006836 154.00537109 C-239.39029196 151.18927655 -238.09220269 148.42865406 -236.88256836 145.50537109 C-235.07247229 141.43265494 -232.80561696 137.86015865 -230.38256836 134.13037109 C-229.27812579 132.38054521 -228.17397807 130.63053319 -227.07006836 128.88037109 C-225.84185389 126.96309411 -224.6126684 125.04643887 -223.38256836 123.13037109 C-222.79862305 122.20353516 -222.21467773 121.27669922 -221.61303711 120.32177734 C-205.48030893 95.29057593 -183.49697107 71.55386609 -159.38256836 54.13037109 C-158.23482078 53.27702717 -157.08769474 52.4228467 -155.94116211 51.56787109 C-147.7461834 45.52277073 -139.19705616 40.21956728 -130.38256836 35.13037109 C-129.59624023 34.67146484 -128.80991211 34.21255859 -127.99975586 33.73974609 C-125.81410988 32.49317994 -123.6092778 31.30232343 -121.38256836 30.13037109 C-120.45879395 29.64407227 -120.45879395 29.64407227 -119.51635742 29.14794922 C-117.37312277 28.02687263 -115.22280757 26.92057574 -113.07006836 25.81787109 C-112.37534424 25.45556396 -111.68062012 25.09325684 -110.96484375 24.7199707 C-107.44548582 22.94039506 -105.4005249 22.13037109 -101.38256836 22.13037109 C-101.38256836 21.47037109 -101.38256836 20.81037109 -101.38256836 20.13037109 C-100.3809668 19.80423828 -99.37936523 19.47810547 -98.34741211 19.14208984 C-97.00491016 18.70084795 -95.66246529 18.25943238 -94.32006836 17.81787109 C-93.66329102 17.60453125 -93.00651367 17.39119141 -92.32983398 17.17138672 C-89.15555032 16.12371674 -86.12547636 15.01590611 -83.06616211 13.65380859 C-78.31166413 11.68747327 -73.47460326 10.38544955 -68.50756836 9.06787109 C-67.56526367 8.81199219 -66.62295898 8.55611328 -65.65209961 8.29248047 C-56.6584068 5.87301539 -47.72250714 3.92216614 -38.50756836 2.56787109 C-37.68643555 2.4421875 -36.86530273 2.31650391 -36.01928711 2.18701172 C-33.47653776 1.80817777 -30.93213123 1.46016288 -28.38256836 1.13037109 C-27.59793213 1.02885742 -26.8132959 0.92734375 -26.00488281 0.82275391 C-17.36006821 -0.12568647 -8.68505093 -0.02080252 0 0 Z " fill="#111726" transform="translate(509.382568359375,162.86962890625)"/>
<path d="M0 0 C5.47774849 2.51890167 9.24376238 6.71721122 12 12 C12 13.32 12 14.64 12 16 C13.55847656 15.91298828 13.55847656 15.91298828 15.1484375 15.82421875 C23.76922128 15.48472817 30.84885576 15.52140699 38 21 C43.2510201 25.86823546 46.79700788 30.33052711 47.203125 37.671875 C47.21388062 38.66127075 47.21388062 38.66127075 47.22485352 39.6706543 C47.30587135 46.36996414 47.89853127 51.34625109 52.17578125 56.7109375 C54.46773097 59.58691723 56.34809267 62.67341697 58.25 65.8125 C58.91515625 66.89144531 59.5803125 67.97039062 60.265625 69.08203125 C63.03261626 73.73730709 64.48152583 76.46245297 64 82 C63.34 82.66 62.68 83.32 62 84 C57.38 84 52.76 84 48 84 C48 94.56 48 105.12 48 116 C52.29 116 56.58 116 61 116 C62.32 116.99 63.64 117.98 65 119 C64.48584717 123.91383208 63.03736175 127.05004593 60.375 131.1875 C59.34617265 132.80393823 58.31871882 134.42133598 57.30786133 136.04907227 C56 138 56 138 54.19799805 140.16772461 C47.31745077 149.14712422 47.99100298 158.3757794 48.0625 169.1875 C48.04936881 171.01630133 48.03311792 172.84508304 48.01367188 174.67382812 C47.97314 179.11647643 47.97483858 183.55725795 48 188 C48.78101074 188.14099121 49.56202148 188.28198242 50.36669922 188.42724609 C54.73912922 189.37826786 57.83201839 191.91430362 61 195 C62.77112077 197.82675566 64 200.60197433 64 204 C79.84 204 95.68 204 112 204 C112 199.05 112 194.1 112 189 C114 187 114 187 116.59765625 186.55078125 C121.40745734 187.18582961 124.4956619 189.47247624 128.4375 192.1875 C129.16259766 192.67025391 129.88769531 193.15300781 130.63476562 193.65039062 C131.35212891 194.13056641 132.06949219 194.61074219 132.80859375 195.10546875 C133.52571533 195.5852417 134.24283691 196.06501465 134.98168945 196.55932617 C137 198 137 198 138.58666992 199.45043945 C144.31220474 204.4942984 151.15108462 203.77939665 158.4375 203.8125 C159.74138672 203.83763672 161.04527344 203.86277344 162.38867188 203.88867188 C165.59275157 203.94735465 168.79547066 203.98377534 172 204 C172.28609131 203.08903564 172.57218262 202.17807129 172.86694336 201.23950195 C173.78476706 198.61536864 174.69537963 196.5184907 176.12890625 194.16796875 C176.52400391 193.51505859 176.91910156 192.86214844 177.32617188 192.18945312 C177.73416016 191.52880859 178.14214844 190.86816406 178.5625 190.1875 C178.97435547 189.50751953 179.38621094 188.82753906 179.81054688 188.12695312 C182.83047672 183.16952328 182.83047672 183.16952328 184 182 C186.3125 181.625 186.3125 181.625 189 182 C191.83891409 185.16855354 194.05302987 188.56814332 196.19921875 192.23046875 C197.05290039 193.68163086 197.05290039 193.68163086 197.92382812 195.16210938 C198.50583984 196.16048828 199.08785156 197.15886719 199.6875 198.1875 C200.28111328 199.19748047 200.87472656 200.20746094 201.48632812 201.24804688 C207.35882807 211.25875089 207.35882807 211.25875089 207 217 C206.34 217.66 205.68 218.32 205 219 C199.72 219 194.44 219 189 219 C189 230.88 189 242.76 189 255 C192.96 255 196.92 255 201 255 C201.99 255.66 202.98 256.32 204 257 C204.67799328 261.58741311 204.46274599 266.24350887 204.4375 270.875 C204.45748047 272.16792969 204.47746094 273.46085937 204.49804688 274.79296875 C204.49740234 276.03433594 204.49675781 277.27570313 204.49609375 278.5546875 C204.49794678 279.69405762 204.4997998 280.83342773 204.50170898 282.00732422 C204 285 204 285 202.3581543 287.37402344 C199.31459829 289.47259296 197.45270562 289.48848744 193.7734375 289.4609375 C191.9790625 289.45513672 191.9790625 289.45513672 190.1484375 289.44921875 C188.90320313 289.42472656 187.65796875 289.40023438 186.375 289.375 C185.12203125 289.37371094 183.8690625 289.37242187 182.578125 289.37109375 C173.2807303 289.2807303 173.2807303 289.2807303 171 287 C170.8046875 283.9609375 170.8046875 283.9609375 170.875 280.375 C170.89304687 279.18648437 170.91109375 277.99796875 170.9296875 276.7734375 C170.95289063 275.85820313 170.97609375 274.94296875 171 274 C143.85855833 272.55136972 143.85855833 272.55136972 121 285 C118.99238534 286.44438112 116.95223083 287.84516415 114.875 289.1875 C114.04742188 289.75855469 113.21984375 290.32960938 112.3671875 290.91796875 C109.42075391 292.2647709 108.02799831 292.04501625 105 291 C104.34 290.34 103.68 289.68 103 289 C103 284.05 103 279.1 103 274 C73.63 274 44.26 274 14 274 C13.67 275.98 13.34 277.96 13 280 C11.01562294 284.48256604 8.12100672 287.2749215 3.75 289.4375 C-0.89377128 291.19813514 -5.09560345 292.10581058 -10 291 C-15.15763848 288.6495786 -19.90789155 285.32976116 -22.40625 280.11328125 C-23.94074768 274.65168097 -24.12119693 268.87651345 -22.046875 263.5546875 C-19.70891743 259.54464635 -17.30425633 256.96766004 -13 255 C-13.65298847 249.34675377 -15.57717081 244.38801136 -17.59765625 239.11328125 C-17.95137802 238.17445602 -18.30509979 237.2356308 -18.66954041 236.26835632 C-19.79532983 233.28107571 -20.92812158 230.29652874 -22.0625 227.3125 C-23.55904654 223.37320535 -25.04894738 219.4314857 -26.53515625 215.48828125 C-27.05542137 214.12888176 -27.05542137 214.12888176 -27.5861969 212.74201965 C-28.06185341 211.48007027 -28.06185341 211.48007027 -28.54711914 210.19262695 C-28.82834122 209.45349564 -29.10956329 208.71436432 -29.39930725 207.95283508 C-30 206 -30 206 -30 203 C-30.70125 203.06960938 -31.4025 203.13921875 -32.125 203.2109375 C-38.58515964 203.57958791 -42.48688529 203.03617303 -47.40625 198.69140625 C-51.26690141 194.59419531 -52.18916588 191.07100232 -52.4375 185.5625 C-52.23840715 179.44869038 -50.90488486 175.82579146 -46.421875 171.46484375 C-42.32978991 168.15615333 -39.36030656 167.45302994 -34 168 C-33.9582666 167.30052246 -33.9165332 166.60104492 -33.87353516 165.88037109 C-33.20700777 156.39206631 -31.47564384 147.21603654 -29.640625 137.89453125 C-29.41632813 136.70472656 -29.19203125 135.51492188 -28.9609375 134.2890625 C-28.75259277 133.22381348 -28.54424805 132.15856445 -28.32958984 131.06103516 C-27.80560617 126.19458528 -28.55819145 122.25905809 -30.9609375 118.01171875 C-31.35023438 117.30466797 -31.73953125 116.59761719 -32.140625 115.86914062 C-32.54796875 115.14919922 -32.9553125 114.42925781 -33.375 113.6875 C-41.30288968 99.63467619 -41.30288968 99.63467619 -40.75 93 C-40 91 -40 91 -39 90 C-33.28341698 89.66888616 -27.60981434 89.78706717 -22 91 C-21.867146 89.69877197 -21.73429199 88.39754395 -21.59741211 87.05688477 C-21.07397984 82.35803513 -20.30795566 77.7360478 -19.44140625 73.08984375 C-19.29219223 72.27810196 -19.14297821 71.46636017 -18.98924255 70.63002014 C-18.675605 68.92811053 -18.36040669 67.22648785 -18.04370117 65.52514648 C-17.56321981 62.94137077 -17.08887581 60.35652169 -16.61523438 57.77148438 C-16.30765653 56.10670338 -15.9997257 54.44198756 -15.69140625 52.77734375 C-15.55174942 52.01566391 -15.41209259 51.25398407 -15.26820374 50.46922302 C-14.35589601 45.5921504 -13.24457967 40.80333684 -12 36 C-12.59683594 35.88011719 -13.19367188 35.76023437 -13.80859375 35.63671875 C-18.28157062 34.33708376 -21.20993937 31.07974953 -23.875 27.4375 C-25.7834193 21.60621882 -26.5465469 15.2844192 -23.86328125 9.5859375 C-22.3814707 7.50906916 -20.83396594 5.77013882 -19 4 C-18.154375 3.175 -17.30875 2.35 -16.4375 1.5 C-10.99317078 -0.8757073 -5.83244576 -0.94002789 0 0 Z " fill="#181E2A" transform="translate(428,279)"/>
<path d="M0 0 C2.70521487 0.00542177 5.41026828 -0.00000484 8.11547852 -0.00634766 C9.83618201 -0.0056879 11.5568854 -0.00440888 13.27758789 -0.00244141 C14.08583511 -0.00446564 14.89408234 -0.00648987 15.7268219 -0.00857544 C21.38742976 0.01537015 21.38742976 0.01537015 23.61743164 1.13037109 C25.65359748 1.44557104 27.69691927 1.715013 29.74243164 1.96240234 C30.99838135 2.119104 32.25433105 2.27580566 33.54833984 2.43725586 C34.21322418 2.51952423 34.87810852 2.6017926 35.56314087 2.68655396 C50.8789397 4.59753062 66.06622952 6.75852772 80.61743164 12.13037109 C82.0744893 12.61340296 83.53287938 13.09243025 84.99243164 13.56787109 C88.37970931 14.70089777 91.75310623 15.86833446 95.11743164 17.06787109 C96.37040039 17.51453125 96.37040039 17.51453125 97.64868164 17.97021484 C101.70159156 19.55404938 105.65459885 21.33470003 109.61743164 23.13037109 C110.40939941 23.48752197 111.20136719 23.84467285 112.01733398 24.21264648 C124.79127872 30.01933359 136.86469178 36.46288593 148.61743164 44.13037109 C149.4977002 44.70005615 149.4977002 44.70005615 150.39575195 45.28125 C169.51381087 57.7522275 187.71551184 73.39279373 202.56274414 90.74755859 C204.09507678 92.52459835 205.65738581 94.27587285 207.23461914 96.01318359 C221.30869171 111.68441549 234.41191564 130.68785678 242.61743164 150.13037109 C243.36378435 151.45694484 244.13234695 152.77145336 244.92993164 154.06787109 C248.24230021 159.95543421 250.42605378 166.23549587 252.69604492 172.57373047 C253.74671197 175.48909489 254.82052113 178.39549275 255.89477539 181.30224609 C256.69873471 183.49474407 257.5021203 185.68745251 258.30493164 187.88037109 C258.8758252 189.42337891 258.8758252 189.42337891 259.45825195 190.99755859 C268.35335381 215.51198908 271.14359711 241.16507387 270.89868164 267.09741211 C270.8667784 270.51280333 270.85762072 273.92773445 270.85180664 277.34326172 C270.84266251 279.51839765 270.83229518 281.69352887 270.82055664 283.86865234 C270.81630676 284.88816483 270.81205688 285.90767731 270.80767822 286.95808411 C270.79326691 288.35301338 270.79326691 288.35301338 270.77856445 289.77612305 C270.77173645 290.59579056 270.76490845 291.41545807 270.75787354 292.25996399 C270.61743164 294.13037109 270.61743164 294.13037109 269.61743164 295.13037109 C269.34376996 296.61876891 269.12631066 298.11759505 268.93383789 299.61865234 C268.81194092 300.54734131 268.69004395 301.47603027 268.56445312 302.43286133 C268.43756104 303.42616455 268.31066895 304.41946777 268.17993164 305.44287109 C267.91289936 307.46125897 267.64467941 309.47949009 267.37524414 311.49755859 C267.24537109 312.47176758 267.11549805 313.44597656 266.98168945 314.44970703 C265.38100425 326.22954856 262.34355134 337.1505795 258.84106445 348.49926758 C258.44379676 349.78909143 258.048272 351.07945347 257.65454102 352.37036133 C254.44138289 362.9031259 250.87737847 373.00545237 245.86743164 382.81787109 C245.52454102 383.49503174 245.18165039 384.17219238 244.82836914 384.86987305 C243.76504704 386.96037788 242.69307768 389.04618355 241.61743164 391.13037109 C241.11373047 392.10876953 241.11373047 392.10876953 240.59985352 393.10693359 C231.09986947 411.47480881 219.76437637 427.91198112 206.55493164 443.79833984 C205.23749257 445.38404776 203.94650355 446.99202673 202.67993164 448.61865234 C200.4727669 451.30654425 198.1044864 453.70044623 195.61743164 456.13037109 C194.82723633 456.93216797 194.03704102 457.73396484 193.22290039 458.56005859 C170.99684353 481.0374602 145.33977305 498.72100505 116.93774414 512.47412109 C113.71134207 514.01448756 113.71134207 514.01448756 111.18383789 515.66552734 C107.74675853 517.62733063 104.17239411 518.81149678 100.42993164 520.06787109 C95.80176958 521.63882089 91.2363593 523.26885254 86.71899414 525.13818359 C58.40662359 536.55494397 26.3998765 538.5970598 -3.75756836 538.56787109 C-4.83810486 538.56809265 -5.91864136 538.56831421 -7.03192139 538.56854248 C-20.93411054 538.53810224 -33.96643748 538.10552098 -47.38256836 534.13037109 C-49.03386312 533.83314501 -50.6878884 533.55092724 -52.34350586 533.27880859 C-58.49084195 532.18103377 -64.40316933 530.53843096 -70.38256836 528.75537109 C-71.38545898 528.46404297 -72.38834961 528.17271484 -73.42163086 527.87255859 C-83.76238875 524.82644387 -93.66269338 521.15481603 -103.44506836 516.63037109 C-110.0222071 513.60271728 -116.63593785 510.76127921 -123.38256836 508.13037109 C-123.38256836 507.47037109 -123.38256836 506.81037109 -123.38256836 506.13037109 C-124.34291992 505.92154297 -125.30327148 505.71271484 -126.29272461 505.49755859 C-131.36659005 504.03842439 -135.46623562 501.16592807 -139.82006836 498.25537109 C-141.13515381 497.38634155 -141.13515381 497.38634155 -142.47680664 496.49975586 C-167.38659391 479.88193098 -191.38382367 460.16079996 -209.12768555 435.84277344 C-210.45435034 434.03241802 -211.8105515 432.24700158 -213.17163086 430.46240234 C-221.9959473 418.79931422 -229.17496085 406.40502793 -236.25756836 393.63037109 C-236.72227539 392.79352783 -237.18698242 391.95668457 -237.66577148 391.09448242 C-240.17474648 386.51872549 -242.38622922 381.95036109 -244.38256836 377.13037109 C-245.0137093 375.87288876 -245.65692497 374.62127461 -246.32006836 373.38037109 C-248.80960298 368.46781614 -250.6028462 363.3341975 -252.38256836 358.13037109 C-252.60726807 357.49993896 -252.83196777 356.86950684 -253.06347656 356.2199707 C-255.30735901 349.77072916 -256.89562177 343.21345146 -258.44506836 336.56787109 C-258.9564837 334.39983075 -259.46819585 332.2318604 -259.98022461 330.06396484 C-260.31292358 328.64168579 -260.31292358 328.64168579 -260.65234375 327.19067383 C-261.19831448 324.9025618 -261.77626639 322.62203863 -262.37036133 320.34594727 C-266.28633272 304.65992577 -266.89113443 288.68548136 -266.82861328 272.59277344 C-266.82009259 269.26483355 -266.84902711 265.93861251 -266.88061523 262.61083984 C-266.93782214 244.68160171 -264.46154456 227.60912352 -260.09350586 210.23974609 C-259.68337199 208.44597378 -259.30662903 206.64239632 -259.02368164 204.82421875 C-257.763256 196.85512298 -255.28629674 189.56383633 -252.50756836 182.00537109 C-252.0731543 180.79494141 -251.63874023 179.58451172 -251.19116211 178.33740234 C-248.16870472 169.99614606 -244.87419324 161.89954165 -240.82006836 154.00537109 C-239.39029196 151.18927655 -238.09220269 148.42865406 -236.88256836 145.50537109 C-235.07247229 141.43265494 -232.80561696 137.86015865 -230.38256836 134.13037109 C-229.27812579 132.38054521 -228.17397807 130.63053319 -227.07006836 128.88037109 C-225.84185389 126.96309411 -224.6126684 125.04643887 -223.38256836 123.13037109 C-222.79862305 122.20353516 -222.21467773 121.27669922 -221.61303711 120.32177734 C-205.48030893 95.29057593 -183.49697107 71.55386609 -159.38256836 54.13037109 C-158.23482078 53.27702717 -157.08769474 52.4228467 -155.94116211 51.56787109 C-147.7461834 45.52277073 -139.19705616 40.21956728 -130.38256836 35.13037109 C-129.59624023 34.67146484 -128.80991211 34.21255859 -127.99975586 33.73974609 C-125.81410988 32.49317994 -123.6092778 31.30232343 -121.38256836 30.13037109 C-120.45879395 29.64407227 -120.45879395 29.64407227 -119.51635742 29.14794922 C-117.37312277 28.02687263 -115.22280757 26.92057574 -113.07006836 25.81787109 C-112.37534424 25.45556396 -111.68062012 25.09325684 -110.96484375 24.7199707 C-107.44548582 22.94039506 -105.4005249 22.13037109 -101.38256836 22.13037109 C-101.38256836 21.47037109 -101.38256836 20.81037109 -101.38256836 20.13037109 C-100.3809668 19.80423828 -99.37936523 19.47810547 -98.34741211 19.14208984 C-97.00491016 18.70084795 -95.66246529 18.25943238 -94.32006836 17.81787109 C-93.66329102 17.60453125 -93.00651367 17.39119141 -92.32983398 17.17138672 C-89.15555032 16.12371674 -86.12547636 15.01590611 -83.06616211 13.65380859 C-78.31166413 11.68747327 -73.47460326 10.38544955 -68.50756836 9.06787109 C-67.56526367 8.81199219 -66.62295898 8.55611328 -65.65209961 8.29248047 C-56.6584068 5.87301539 -47.72250714 3.92216614 -38.50756836 2.56787109 C-37.68643555 2.4421875 -36.86530273 2.31650391 -36.01928711 2.18701172 C-33.47653776 1.80817777 -30.93213123 1.46016288 -28.38256836 1.13037109 C-27.59793213 1.02885742 -26.8132959 0.92734375 -26.00488281 0.82275391 C-17.36006821 -0.12568647 -8.68505093 -0.02080252 0 0 Z M-79.21948242 32.22192383 C-82.12203094 33.44092869 -85.08876499 34.43443514 -88.07006836 35.44287109 C-120.00835987 46.82239154 -147.84962355 66.42626051 -172.44506836 89.44287109 C-173.13536133 90.08836914 -173.8256543 90.73386719 -174.53686523 91.39892578 C-182.54540758 99.0136693 -189.47516803 107.5211475 -196.38256836 116.13037109 C-197.01163086 116.91412109 -197.64069336 117.69787109 -198.28881836 118.50537109 C-198.83538086 119.20662109 -199.38194336 119.90787109 -199.94506836 120.63037109 C-200.42073242 121.23880859 -200.89639648 121.84724609 -201.38647461 122.47412109 C-202.64026193 124.23673154 -202.64026193 124.23673154 -202.38256836 127.13037109 C-203.04256836 127.13037109 -203.70256836 127.13037109 -204.38256836 127.13037109 C-205.95698584 129.11564254 -207.36474164 131.08286484 -208.75756836 133.19287109 C-209.40761841 134.17380737 -209.40761841 134.17380737 -210.07080078 135.17456055 C-218.51536643 148.25952348 -225.94570768 162.53277256 -231.38256836 177.13037109 C-231.94977405 178.5889 -232.51753205 180.04721418 -233.08569336 181.50537109 C-236.70335847 190.91397872 -239.75533012 200.26181043 -241.92211914 210.10693359 C-242.3888308 212.15789132 -242.91072989 214.18879748 -243.44116211 216.22412109 C-250.9654864 246.43765044 -251.19198931 282.73526174 -245.38256836 313.13037109 C-245.1544043 314.34982422 -244.92624023 315.56927734 -244.69116211 316.82568359 C-243.98983382 320.28022635 -243.20216563 323.70196644 -242.38256836 327.13037109 C-242.20467773 327.90268066 -242.02678711 328.67499023 -241.84350586 329.47070312 C-239.46328692 339.7830017 -236.8174998 349.48406622 -232.38256836 359.13037109 C-231.38046249 361.52532437 -230.38054553 363.92119445 -229.38256836 366.31787109 C-227.35756083 371.04462389 -225.19583944 375.55627138 -222.55834961 379.97021484 C-221.38256836 382.13037109 -221.38256836 382.13037109 -220.11694336 385.25146484 C-218.02745811 390.21192792 -215.16113921 394.69730525 -212.32006836 399.25537109 C-211.74224609 400.18462402 -211.16442383 401.11387695 -210.5690918 402.07128906 C-205.91047561 409.47079733 -200.91814811 416.36466251 -195.38256836 423.13037109 C-194.65811523 424.04560547 -193.93366211 424.96083984 -193.18725586 425.90380859 C-164.47280887 461.82259712 -122.69148331 495.59141846 -77.38256836 507.13037109 C-76.06256836 507.13037109 -74.74256836 507.13037109 -73.38256836 507.13037109 C-73.38256836 507.79037109 -73.38256836 508.45037109 -73.38256836 509.13037109 C-50.52815799 515.60119813 -28.17911456 519.92019551 -4.38256836 520.13037109 C-2.33828773 520.16891777 -0.29401684 520.20798388 1.75024414 520.24755859 C22.32808861 520.54559836 42.7994259 518.98068814 62.61743164 513.13037109 C64.68507807 512.54031039 66.75279385 511.95049266 68.82055664 511.36083984 C71.16967826 510.68041373 73.51863206 509.99940802 75.86743164 509.31787109 C77.03145508 508.98722656 78.19547852 508.65658203 79.39477539 508.31591797 C86.81042329 506.15267466 93.66756132 503.48587423 100.61743164 500.13037109 C102.14834197 499.43663253 103.6808319 498.74636625 105.21508789 498.06005859 C158.94349693 473.51935702 200.34146972 431.00361379 227.61743164 379.13037109 C227.96902344 378.47198242 228.32061523 377.81359375 228.68286133 377.13525391 C239.42036302 356.78023873 245.73101219 333.72918051 249.61743164 311.13037109 C249.77969238 310.18790527 249.94195313 309.24543945 250.10913086 308.27441406 C255.69478214 274.06302054 256.13893642 231.53728338 242.61743164 199.13037109 C242.08233106 197.13414096 241.56310978 195.13362403 241.05493164 193.13037109 C228.10923375 147.21886259 195.88875382 103.35788245 158.61743164 74.13037109 C157.84544434 73.51911377 157.84544434 73.51911377 157.05786133 72.89550781 C145.2227407 63.53474137 132.82720348 55.42204825 119.61743164 48.13037109 C119.03219727 47.80617188 118.44696289 47.48197266 117.84399414 47.14794922 C102.26215301 38.54331028 85.9282962 32.48771568 68.81225586 27.74169922 C67.23794092 27.3032026 65.66699166 26.85255301 64.09838867 26.39404297 C57.16412704 24.41104144 50.24211775 23.09811436 43.11743164 22.00537109 C41.54155273 21.75207031 41.54155273 21.75207031 39.93383789 21.49365234 C1.43902065 15.45058462 -42.9931082 16.94605229 -79.21948242 32.22192383 Z " fill="#B1B5EC" transform="translate(509.382568359375,162.86962890625)"/>
<path d="M0 0 C5.47774849 2.51890167 9.24376238 6.71721122 12 12 C12 13.32 12 14.64 12 16 C13.55847656 15.91298828 13.55847656 15.91298828 15.1484375 15.82421875 C23.76922128 15.48472817 30.84885576 15.52140699 38 21 C43.2510201 25.86823546 46.79700788 30.33052711 47.203125 37.671875 C47.21388062 38.66127075 47.21388062 38.66127075 47.22485352 39.6706543 C47.30587135 46.36996414 47.89853127 51.34625109 52.17578125 56.7109375 C54.46773097 59.58691723 56.34809267 62.67341697 58.25 65.8125 C58.91515625 66.89144531 59.5803125 67.97039062 60.265625 69.08203125 C63.03261626 73.73730709 64.48152583 76.46245297 64 82 C63.34 82.66 62.68 83.32 62 84 C57.38 84 52.76 84 48 84 C48 94.56 48 105.12 48 116 C52.29 116 56.58 116 61 116 C62.32 116.99 63.64 117.98 65 119 C64.48584717 123.91383208 63.03736175 127.05004593 60.375 131.1875 C59.34617265 132.80393823 58.31871882 134.42133598 57.30786133 136.04907227 C56 138 56 138 54.19799805 140.16772461 C47.31745077 149.14712422 47.99100298 158.3757794 48.0625 169.1875 C48.04936881 171.01630133 48.03311792 172.84508304 48.01367188 174.67382812 C47.97314 179.11647643 47.97483858 183.55725795 48 188 C48.78101074 188.14099121 49.56202148 188.28198242 50.36669922 188.42724609 C54.73912922 189.37826786 57.83201839 191.91430362 61 195 C62.77112077 197.82675566 64 200.60197433 64 204 C79.84 204 95.68 204 112 204 C112 199.05 112 194.1 112 189 C114 187 114 187 116.59765625 186.55078125 C121.40745734 187.18582961 124.4956619 189.47247624 128.4375 192.1875 C129.16259766 192.67025391 129.88769531 193.15300781 130.63476562 193.65039062 C131.35212891 194.13056641 132.06949219 194.61074219 132.80859375 195.10546875 C133.52571533 195.5852417 134.24283691 196.06501465 134.98168945 196.55932617 C137 198 137 198 138.58666992 199.45043945 C144.31220474 204.4942984 151.15108462 203.77939665 158.4375 203.8125 C159.74138672 203.83763672 161.04527344 203.86277344 162.38867188 203.88867188 C165.59275157 203.94735465 168.79547066 203.98377534 172 204 C172.28609131 203.08903564 172.57218262 202.17807129 172.86694336 201.23950195 C173.78476706 198.61536864 174.69537963 196.5184907 176.12890625 194.16796875 C176.52400391 193.51505859 176.91910156 192.86214844 177.32617188 192.18945312 C177.73416016 191.52880859 178.14214844 190.86816406 178.5625 190.1875 C178.97435547 189.50751953 179.38621094 188.82753906 179.81054688 188.12695312 C182.83047672 183.16952328 182.83047672 183.16952328 184 182 C186.3125 181.625 186.3125 181.625 189 182 C191.83891409 185.16855354 194.05302987 188.56814332 196.19921875 192.23046875 C197.05290039 193.68163086 197.05290039 193.68163086 197.92382812 195.16210938 C198.50583984 196.16048828 199.08785156 197.15886719 199.6875 198.1875 C200.28111328 199.19748047 200.87472656 200.20746094 201.48632812 201.24804688 C207.35882807 211.25875089 207.35882807 211.25875089 207 217 C206.34 217.66 205.68 218.32 205 219 C199.72 219 194.44 219 189 219 C189 230.88 189 242.76 189 255 C192.96 255 196.92 255 201 255 C201.99 255.66 202.98 256.32 204 257 C204.67799328 261.58741311 204.46274599 266.24350887 204.4375 270.875 C204.45748047 272.16792969 204.47746094 273.46085937 204.49804688 274.79296875 C204.49740234 276.03433594 204.49675781 277.27570313 204.49609375 278.5546875 C204.49794678 279.69405762 204.4997998 280.83342773 204.50170898 282.00732422 C204 285 204 285 202.3581543 287.37402344 C199.31459829 289.47259296 197.45270562 289.48848744 193.7734375 289.4609375 C191.9790625 289.45513672 191.9790625 289.45513672 190.1484375 289.44921875 C188.90320313 289.42472656 187.65796875 289.40023438 186.375 289.375 C185.12203125 289.37371094 183.8690625 289.37242187 182.578125 289.37109375 C173.2807303 289.2807303 173.2807303 289.2807303 171 287 C170.8046875 283.9609375 170.8046875 283.9609375 170.875 280.375 C170.89304687 279.18648437 170.91109375 277.99796875 170.9296875 276.7734375 C170.95289063 275.85820313 170.97609375 274.94296875 171 274 C143.85855833 272.55136972 143.85855833 272.55136972 121 285 C118.99238534 286.44438112 116.95223083 287.84516415 114.875 289.1875 C114.04742188 289.75855469 113.21984375 290.32960938 112.3671875 290.91796875 C109.42075391 292.2647709 108.02799831 292.04501625 105 291 C104.34 290.34 103.68 289.68 103 289 C103 284.05 103 279.1 103 274 C73.63 274 44.26 274 14 274 C13.67 275.98 13.34 277.96 13 280 C11.01562294 284.48256604 8.12100672 287.2749215 3.75 289.4375 C-0.89377128 291.19813514 -5.09560345 292.10581058 -10 291 C-15.15763848 288.6495786 -19.90789155 285.32976116 -22.40625 280.11328125 C-23.94074768 274.65168097 -24.12119693 268.87651345 -22.046875 263.5546875 C-19.70891743 259.54464635 -17.30425633 256.96766004 -13 255 C-13.65298847 249.34675377 -15.57717081 244.38801136 -17.59765625 239.11328125 C-17.95137802 238.17445602 -18.30509979 237.2356308 -18.66954041 236.26835632 C-19.79532983 233.28107571 -20.92812158 230.29652874 -22.0625 227.3125 C-23.55904654 223.37320535 -25.04894738 219.4314857 -26.53515625 215.48828125 C-27.05542137 214.12888176 -27.05542137 214.12888176 -27.5861969 212.74201965 C-28.06185341 211.48007027 -28.06185341 211.48007027 -28.54711914 210.19262695 C-28.82834122 209.45349564 -29.10956329 208.71436432 -29.39930725 207.95283508 C-30 206 -30 206 -30 203 C-30.70125 203.06960938 -31.4025 203.13921875 -32.125 203.2109375 C-38.58515964 203.57958791 -42.48688529 203.03617303 -47.40625 198.69140625 C-51.26690141 194.59419531 -52.18916588 191.07100232 -52.4375 185.5625 C-52.23840715 179.44869038 -50.90488486 175.82579146 -46.421875 171.46484375 C-42.32978991 168.15615333 -39.36030656 167.45302994 -34 168 C-33.9582666 167.30052246 -33.9165332 166.60104492 -33.87353516 165.88037109 C-33.20700777 156.39206631 -31.47564384 147.21603654 -29.640625 137.89453125 C-29.41632813 136.70472656 -29.19203125 135.51492188 -28.9609375 134.2890625 C-28.75259277 133.22381348 -28.54424805 132.15856445 -28.32958984 131.06103516 C-27.80560617 126.19458528 -28.55819145 122.25905809 -30.9609375 118.01171875 C-31.35023438 117.30466797 -31.73953125 116.59761719 -32.140625 115.86914062 C-32.54796875 115.14919922 -32.9553125 114.42925781 -33.375 113.6875 C-41.30288968 99.63467619 -41.30288968 99.63467619 -40.75 93 C-40 91 -40 91 -39 90 C-33.28341698 89.66888616 -27.60981434 89.78706717 -22 91 C-21.867146 89.69877197 -21.73429199 88.39754395 -21.59741211 87.05688477 C-21.07397984 82.35803513 -20.30795566 77.7360478 -19.44140625 73.08984375 C-19.29219223 72.27810196 -19.14297821 71.46636017 -18.98924255 70.63002014 C-18.675605 68.92811053 -18.36040669 67.22648785 -18.04370117 65.52514648 C-17.56321981 62.94137077 -17.08887581 60.35652169 -16.61523438 57.77148438 C-16.30765653 56.10670338 -15.9997257 54.44198756 -15.69140625 52.77734375 C-15.55174942 52.01566391 -15.41209259 51.25398407 -15.26820374 50.46922302 C-14.35589601 45.5921504 -13.24457967 40.80333684 -12 36 C-12.59683594 35.88011719 -13.19367188 35.76023437 -13.80859375 35.63671875 C-18.28157062 34.33708376 -21.20993937 31.07974953 -23.875 27.4375 C-25.7834193 21.60621882 -26.5465469 15.2844192 -23.86328125 9.5859375 C-22.3814707 7.50906916 -20.83396594 5.77013882 -19 4 C-18.154375 3.175 -17.30875 2.35 -16.4375 1.5 C-10.99317078 -0.8757073 -5.83244576 -0.94002789 0 0 Z M13 20 C12.70867187 20.66386719 12.41734375 21.32773437 12.1171875 22.01171875 C9.46694434 27.72057587 7.41315757 31.66882611 2 35 C-0.97217383 35.92088665 -3.92430596 36.54206333 -7 37 C-8.46372337 41.92223437 -9.67054421 46.84876823 -10.69140625 51.8828125 C-10.841577 52.61893768 -10.99174774 53.35506287 -11.14646912 54.11349487 C-11.46144105 55.66453763 -11.77481726 57.2159052 -12.08666992 58.76757812 C-12.55731007 61.09928735 -13.03920649 63.42848671 -13.52148438 65.7578125 C-15.30930888 74.54435438 -16.52474598 83.02876667 -17 92 C-12.05 92.66 -7.1 93.32 -2 94 C-3.12081218 101.84568528 -3.12081218 101.84568528 -6.5 105.6875 C-10.58890547 110.48367561 -14.31254975 115.43989134 -18.01953125 120.53125 C-20 123 -20 123 -23 125 C-23.68902976 127.63193891 -24.19337738 130.11187577 -24.60546875 132.7890625 C-24.73440018 133.56631683 -24.8633316 134.34357117 -24.99617004 135.14437866 C-25.2668567 136.79268344 -25.53123116 138.44203527 -25.78979492 140.09228516 C-26.18305723 142.59670699 -26.59658398 145.09710445 -27.01367188 147.59765625 C-27.27465501 149.20292753 -27.53445752 150.80839129 -27.79296875 152.4140625 C-27.91480026 153.15395416 -28.03663177 153.89384583 -28.16215515 154.65615845 C-28.91054406 159.49234838 -29.10660406 164.105873 -29 169 C-27.906875 169.53625 -26.81375 170.0725 -25.6875 170.625 C-21.83878869 172.89215586 -20.31548303 174.58926277 -19 179 C-17.89493789 191.3580185 -17.89493789 191.3580185 -22 197 C-23.11375 197.99 -23.11375 197.99 -24.25 199 C-25.11625 199.99 -25.11625 199.99 -26 201 C-25.58483799 204.31713347 -24.61302151 207.32851716 -23.44946289 210.45141602 C-22.97876122 211.72282188 -22.97876122 211.72282188 -22.49855042 213.01991272 C-22.16000534 213.92213058 -21.82146027 214.82434845 -21.47265625 215.75390625 C-20.94918861 217.160709 -20.94918861 217.160709 -20.41514587 218.59593201 C-19.67806323 220.57431192 -18.93913501 222.55200508 -18.19848633 224.52905273 C-17.06587717 227.55348188 -15.93971535 230.58025261 -14.81445312 233.60742188 C-14.0967349 235.53139207 -13.37864836 237.45522492 -12.66015625 239.37890625 C-12.15537498 240.73526939 -12.15537498 240.73526939 -11.64039612 242.11903381 C-11.32344284 242.96348557 -11.00648956 243.80793732 -10.67993164 244.67797852 C-10.40315079 245.41790543 -10.12636993 246.15783234 -9.84120178 246.92018127 C-8.98868399 249.02797813 -8.14367344 251.03292774 -7 253 C-4.79239614 253.77243596 -4.79239614 253.77243596 -2.25 254 C3.87018509 255.02297042 7.42130658 256.99463268 11.3125 261.9375 C13 265 13 265 14 270 C43.37 270 72.74 270 103 270 C103.33 265.05 103.66 260.1 104 255 C104.66 254.34 105.32 253.68 106 253 C109.95990162 253.34042882 112.81401824 254.82854659 116.1953125 256.8359375 C117.15824219 257.40570312 118.12117187 257.97546875 119.11328125 258.5625 C120.10714844 259.160625 121.10101562 259.75875 122.125 260.375 C123.12660156 260.96539063 124.12820313 261.55578125 125.16015625 262.1640625 C132.75531886 266.69057552 132.75531886 266.69057552 134.32495117 268.67553711 C137.10267794 270.87188862 140.34342693 270.36498563 143.73046875 270.29296875 C144.48088943 270.28872391 145.23131012 270.28447906 146.00447083 270.28010559 C148.39918026 270.2633245 150.79304534 270.2256749 153.1875 270.1875 C154.8118368 270.17245235 156.4361868 270.15876409 158.06054688 270.14648438 C162.04068948 270.11342305 166.02020163 270.06164594 170 270 C170.07347656 268.86111328 170.07347656 268.86111328 170.1484375 267.69921875 C170.22320313 266.70535156 170.29796875 265.71148438 170.375 264.6875 C170.47941406 263.20830078 170.47941406 263.20830078 170.5859375 261.69921875 C171 259 171 259 173 256 C176.63 255.67 180.26 255.34 184 255 C184 243.12 184 231.24 184 219 C179.05 218.67 174.1 218.34 169 218 C168.34 217.34 167.68 216.68 167 216 C167.375 212.375 167.375 212.375 168 209 C150.2920541 206.70683394 139.98544877 209.92408697 125.7734375 220.62109375 C124.99403809 221.2442749 124.21463867 221.86745605 123.41162109 222.50952148 C120.54764941 224.2795708 118.35025325 224.80583694 115 225 C113 223 113 223 112 209 C96.16 209 80.32 209 64 209 C62.35 212.3 60.7 215.6 59 219 C53.55428076 223.7769467 49.12989284 224.86501752 41.91015625 224.5546875 C36.21663471 223.46947937 32.65385732 220.27693846 29.3203125 215.6875 C26.85201502 210.66327318 27.21085541 205.44509765 28 200 C30.68175979 193.53939687 34.96801903 191.37567014 41.15649414 188.75415039 C41.76485107 188.50528076 42.37320801 188.25641113 43 188 C43.17438081 182.62907109 43.30068646 177.25982528 43.38452148 171.88671875 C43.41950265 170.06318422 43.46710632 168.23984285 43.52807617 166.41699219 C43.89420474 155.18084485 43.98572403 147.63202226 36 139 C35.083603 137.67276087 34.19675373 136.32439472 33.34765625 134.953125 C32.96416016 134.33566406 32.58066406 133.71820313 32.18554688 133.08203125 C31.62963867 132.17517578 31.62963867 132.17517578 31.0625 131.25 C30.66482422 130.62996094 30.26714844 130.00992188 29.85742188 129.37109375 C27.44614704 125.42838964 26.43976543 122.62020609 27 118 C30.80058475 114.19941525 37.63706592 116.35752894 43 116 C43 105.44 43 94.88 43 84 C38.05 83.67 33.1 83.34 28 83 C27 82 27 82 26.76635742 79.26611328 C27.02673974 75.62620248 27.85710227 73.83778388 29.73828125 70.7421875 C30.31126953 69.78699219 30.88425781 68.83179688 31.47460938 67.84765625 C32.08111328 66.86667969 32.68761719 65.88570312 33.3125 64.875 C33.90740234 63.88628906 34.50230469 62.89757812 35.11523438 61.87890625 C39.50148129 54.6354728 39.50148129 54.6354728 41.66894531 51.87255859 C44.60290317 47.74499867 43.51792106 41.8109112 43 37 C41.07924515 30.51487071 36.98272767 26.03698475 31.4375 22.25 C27.15405705 20.05336259 23.54576004 19.88537217 18.75 19.9375 C17.67234375 19.94652344 16.5946875 19.95554687 15.484375 19.96484375 C14.25460937 19.98224609 14.25460937 19.98224609 13 20 Z " fill="#F5F5F5" transform="translate(428,279)"/>
<path d="M0 0 C4.00631009 2.03957605 6.57198777 4.22309209 9 8 C9.33 5.69 9.66 3.38 10 1 C13.63 1 17.26 1 21 1 C21.09900206 8.15327939 21.17153334 15.30615844 21.21972656 22.45996094 C21.23982071 24.89264881 21.26710088 27.32528851 21.30175781 29.7578125 C21.3503706 33.25793355 21.37299139 36.75741502 21.390625 40.2578125 C21.41127014 41.34240753 21.43191528 42.42700256 21.45318604 43.54446411 C21.45501379 49.71880858 21.1374584 53.31131871 17 58 C11.04968926 63.81808161 5.75436725 65.07787723 -2.375 65.4375 C-8.66704298 65.32889166 -13.12823361 64.03180667 -18 60 C-20.60566301 57.1677576 -22 54.96142369 -22 51 C-18.53715986 49.26857993 -14.77739167 49.37815269 -11 50 C-9.33333333 51.66666667 -7.66666667 53.33333333 -6 55 C-2.85902059 55.7506017 -0.14799529 55.68880186 3 55 C6.25 53.25 6.25 53.25 8 50 C8.38759905 46.95020747 8.29945463 44.05443727 8 41 C6.6078125 41.9590625 6.6078125 41.9590625 5.1875 42.9375 C0.15396065 46.19449605 -4.13982436 46.70205099 -10 46 C-16.40046356 43.70431716 -19.7929484 39.41410319 -22.75 33.5 C-25.28678183 26.03058684 -25.21923157 17.8044136 -22.0625 10.5625 C-17.20355625 2.19583562 -9.62898527 -1.93234738 0 0 Z " fill="#F6F6F6" transform="translate(466,762)"/>
<path d="M0 0 C5.73801167 3.10899872 9.64367972 7.65389236 12.8125 13.3125 C13.5625 17.1875 13.5625 17.1875 13.8125 20.3125 C9.71616099 20.782893 5.88812713 21.02733513 1.8125 20.3125 C-0.10703899 18.41890072 -1.02627644 16.64069104 -2.19921875 14.2265625 C-3.09554404 12.11118698 -3.09554404 12.11118698 -5.4375 10.8125 C-10.98220435 9.80437194 -15.3930962 9.4485278 -20.5625 11.9375 C-24.56336103 15.55732664 -26.29955425 19.19450489 -26.62109375 24.5546875 C-26.63819281 26.09886421 -26.63917886 27.64329371 -26.625 29.1875 C-26.64498047 29.95191406 -26.66496094 30.71632813 -26.68554688 31.50390625 C-26.68070027 37.21320207 -25.3447275 41.53356648 -22.1875 46.3125 C-18.59244772 49.59940494 -15.08928363 49.78076048 -10.3984375 49.59375 C-7.08401271 49.17212706 -4.924418 48.22197767 -2.1875 46.3125 C-1.65125 45.260625 -1.115 44.20875 -0.5625 43.125 C1.8125 40.3125 1.8125 40.3125 4.7265625 39.92578125 C7.77592816 39.93649331 10.77463345 40.05456793 13.8125 40.3125 C12.3802476 48.33589452 9.59299215 53.32956523 2.91015625 58.0859375 C-4.86999324 62.63522417 -15.11748396 62.72913595 -23.83203125 60.6953125 C-30.96721403 57.51473793 -36.34758356 50.4122911 -39.1875 43.3125 C-41.64126298 33.8106944 -41.81369515 21.21801595 -37.44140625 12.3515625 C-29.23865182 -0.98749611 -14.89396168 -6.08731432 0 0 Z " fill="#F6F6F7" transform="translate(537.1875,748.6875)"/>
<path d="M0 0 C4.24126602 2.51068601 7.2886986 5.9523972 9.5 10.375 C9.58675538 13.07393181 9.61557897 15.74669231 9.59765625 18.4453125 C9.5962413 19.24154022 9.59482635 20.03776794 9.59336853 20.85812378 C9.58776345 23.4054538 9.57521014 25.95269647 9.5625 28.5 C9.55748565 30.22525915 9.55292263 31.95051967 9.54882812 33.67578125 C9.53779237 37.90888791 9.52052436 42.14192914 9.5 46.375 C5.54 46.375 1.58 46.375 -2.5 46.375 C-2.995 43.9 -2.995 43.9 -3.5 41.375 C-4.4075 42.2 -5.315 43.025 -6.25 43.875 C-11.26896833 47.46289793 -16.56877534 47.27292151 -22.5 46.375 C-26.58166191 44.3699731 -29.09680787 42.20104526 -31.5 38.375 C-32.28209259 34.06045586 -32.45406281 29.48665903 -30.62109375 25.4296875 C-27.36583951 21.153809 -22.64476742 18.87961942 -17.43383789 18.04345703 C-15.30795966 17.86256252 -13.19486002 17.75578234 -11.0625 17.6875 C-9.96518555 17.63625977 -9.96518555 17.63625977 -8.84570312 17.58398438 C-7.06430438 17.50248247 -5.28218251 17.43704477 -3.5 17.375 C-4.3604139 13.04270285 -4.3604139 13.04270285 -6.5 9.375 C-9.53165468 8.99988654 -12.47228505 8.95943128 -15.5 9.375 C-16.428125 10.365 -16.428125 10.365 -17.375 11.375 C-20.14239938 13.97961118 -21.5171047 13.64399692 -25.25 13.625 C-27.00080759 13.56083428 -28.75138208 13.48353491 -30.5 13.375 C-29.5948091 8.52576304 -28.72282481 5.19412793 -24.7578125 1.94921875 C-17.35394474 -2.86465131 -8.13651163 -3.64528026 0 0 Z " fill="#F2F3F4" transform="translate(373.5,763.625)"/>
<path d="M0 0 C3.7953012 3.54591796 6.09128615 7.60821935 6.35644531 12.78491211 C6.35582214 14.22915877 6.33382777 15.67351879 6.29296875 17.1171875 C6.28730896 17.88414444 6.28164917 18.65110138 6.27581787 19.44129944 C6.25360869 21.86647689 6.20344637 24.29012069 6.15234375 26.71484375 C6.13225855 28.36911913 6.11401133 30.02341791 6.09765625 31.67773438 C6.05379534 35.71151923 5.98488012 39.74417241 5.90234375 43.77734375 C1.94234375 43.77734375 -2.01765625 43.77734375 -6.09765625 43.77734375 C-6.42765625 42.45734375 -6.75765625 41.13734375 -7.09765625 39.77734375 C-8.48984375 40.73640625 -8.48984375 40.73640625 -9.91015625 41.71484375 C-15.20449283 45.14059095 -19.93179796 45.46884188 -26.09765625 44.77734375 C-30.50374368 42.61435538 -33.29640595 40.38053896 -35.09765625 35.77734375 C-35.71537727 31.67979431 -36.01275025 27.72954427 -34.21875 23.90234375 C-30.36039995 18.80881233 -25.28867532 17.16607294 -19.22265625 16.08984375 C-14.85263169 15.66140997 -10.48384145 15.68596489 -6.09765625 15.77734375 C-6.69627367 13.42563244 -7.36689977 11.09140595 -8.09765625 8.77734375 C-10.41198647 7.62017864 -11.95826437 7.54523939 -14.53515625 7.46484375 C-15.31761719 7.42746094 -16.10007812 7.39007812 -16.90625 7.3515625 C-19.28430675 7.55271373 -19.28430675 7.55271373 -20.52734375 9.78125 C-22.09765625 11.77734375 -22.09765625 11.77734375 -24.796875 12.16796875 C-26.27607422 12.09835937 -26.27607422 12.09835937 -27.78515625 12.02734375 C-28.77902344 11.99125 -29.77289062 11.95515625 -30.796875 11.91796875 C-31.93576172 11.84835937 -31.93576172 11.84835937 -33.09765625 11.77734375 C-33.28996135 9.04754941 -33.38091104 7.28574978 -32.03125 4.86328125 C-23.58309347 -4.79805702 -11.25563726 -6.41636136 0 0 Z " fill="#F5F5F6" transform="translate(645.09765625,765.22265625)"/>
<path d="M0 0 C3.96 0 7.92 0 12 0 C12.33 7.26 12.66 14.52 13 22 C15.97 19.525 15.97 19.525 19 17 C22.46090891 15.26954554 26.20910888 15.65420926 30 16 C35.27011062 17.82426906 37.83751204 20.57251686 41 25 C42.41151785 28.80995061 42.12625356 32.82182366 42.09765625 36.828125 C42.0962413 37.57713074 42.09482635 38.32613647 42.09336853 39.09783936 C42.08778659 41.48193412 42.07523745 43.86593378 42.0625 46.25 C42.05748266 47.86979031 42.05292016 49.48958209 42.04882812 51.109375 C42.03782308 55.07295312 42.02057091 59.03646045 42 63 C38.04 63 34.08 63 30 63 C29.98541748 62.08186523 29.97083496 61.16373047 29.95581055 60.21777344 C29.89466485 56.80312091 29.82049783 53.38926328 29.73754883 49.97509766 C29.70434645 48.49896862 29.67629983 47.02271406 29.65356445 45.54638672 C29.61993049 43.42100668 29.56761481 41.29677196 29.51171875 39.171875 C29.48553467 37.8940918 29.45935059 36.61630859 29.43237305 35.29980469 C28.98128721 31.85718689 28.45499353 30.40716176 26 28 C23.60360692 27.36841302 23.60360692 27.36841302 21 27.5 C19.700625 27.48453125 19.700625 27.48453125 18.375 27.46875 C15.92141119 27.79838472 15.92141119 27.79838472 14.38354492 29.58496094 C12.50516391 32.86375836 12.56548162 35.40449709 12.48828125 39.171875 C12.47033005 39.8542926 12.45237885 40.53671021 12.43388367 41.23980713 C12.37989617 43.4098094 12.34592417 45.57959325 12.3125 47.75 C12.27931648 49.22529074 12.24482585 50.70055269 12.20898438 52.17578125 C12.12417842 55.78364427 12.05731163 59.39158362 12 63 C8.04 63 4.08 63 0 63 C0 42.21 0 21.42 0 0 Z " fill="#F8F9F9" transform="translate(560,746)"/>
<path d="M0 0 C4.56556499 2.31744513 7.04998523 5.71599497 8.92578125 10.3515625 C9.42778749 13.21188018 9.41936621 15.97747857 9.3515625 18.875 C9.34827438 19.66178131 9.34498627 20.44856262 9.34159851 21.25918579 C9.33124012 22.90806459 9.31139736 24.55690882 9.2824707 26.20556641 C9.23804377 28.7401107 9.22097602 31.27370663 9.20898438 33.80859375 C9.19557352 35.41407632 9.18065421 37.01954715 9.1640625 38.625 C9.15667557 39.38533539 9.14928864 40.14567078 9.14167786 40.92904663 C9.04415298 46.23319077 9.04415298 46.23319077 7.92578125 47.3515625 C5.90613926 47.42400303 3.88411001 47.43533438 1.86328125 47.4140625 C0.20619141 47.40052734 0.20619141 47.40052734 -1.484375 47.38671875 C-2.33902344 47.37511719 -3.19367188 47.36351562 -4.07421875 47.3515625 C-4.08880127 46.36760498 -4.10338379 45.38364746 -4.1184082 44.36987305 C-4.17638873 40.71862476 -4.2536206 37.06799339 -4.33666992 33.41723633 C-4.36992063 31.83726007 -4.39795221 30.25716498 -4.4206543 28.67700195 C-4.45419891 26.40524671 -4.50651102 24.13458047 -4.5625 21.86328125 C-4.56888992 21.15693039 -4.57527985 20.45057953 -4.5818634 19.7228241 C-4.66932889 16.80442271 -4.73806938 14.81887062 -6.47143555 12.40917969 C-8.5887448 11.01204584 -10.04911302 10.91827101 -12.57421875 10.9140625 C-13.34765625 10.89472656 -14.12109375 10.87539063 -14.91796875 10.85546875 C-17.17769905 11.17662737 -17.17769905 11.17662737 -18.67700195 12.93432617 C-20.57294533 16.21437778 -20.50854285 18.74657852 -20.5859375 22.5234375 C-20.6038887 23.2058551 -20.6218399 23.88827271 -20.64033508 24.59136963 C-20.69432258 26.7613719 -20.72829458 28.93115575 -20.76171875 31.1015625 C-20.79490227 32.57685324 -20.8293929 34.05211519 -20.86523438 35.52734375 C-20.95004033 39.13520677 -21.01690712 42.74314612 -21.07421875 46.3515625 C-25.03421875 46.3515625 -28.99421875 46.3515625 -33.07421875 46.3515625 C-33.07421875 31.1715625 -33.07421875 15.9915625 -33.07421875 0.3515625 C-29.11421875 0.3515625 -25.15421875 0.3515625 -21.07421875 0.3515625 C-20.74421875 2.0015625 -20.41421875 3.6515625 -20.07421875 5.3515625 C-19.12546875 4.5471875 -18.17671875 3.7428125 -17.19921875 2.9140625 C-12.12998493 -1.38376617 -6.42013383 -2.00704749 0 0 Z " fill="#F4F4F5" transform="translate(426.07421875,762.6484375)"/>
<path d="M0 0 C5.09044566 2.2348298 7.60054355 5.1805788 9.76953125 10.3515625 C10.26854847 13.22400254 10.24007386 16.00175943 10.16015625 18.91015625 C10.15449646 19.69930923 10.14883667 20.48846222 10.14300537 21.30152893 C10.12078811 23.79801624 10.07062344 26.29301625 10.01953125 28.7890625 C9.99944713 30.49151559 9.98119972 32.19399139 9.96484375 33.89648438 C9.92097197 38.04874164 9.85205033 42.19990078 9.76953125 46.3515625 C5.80953125 46.3515625 1.84953125 46.3515625 -2.23046875 46.3515625 C-2.23981445 45.43342773 -2.24916016 44.51529297 -2.25878906 43.56933594 C-2.30286806 40.15450972 -2.36450607 36.74093142 -2.43798828 33.32666016 C-2.46616963 31.85054054 -2.48739841 30.37427081 -2.50146484 28.89794922 C-2.52293573 26.77233193 -2.56959918 24.64851371 -2.62109375 22.5234375 C-2.64204102 21.2456543 -2.66298828 19.96787109 -2.68457031 18.65136719 C-3.31393375 14.84703973 -4.20196608 13.65482594 -7.23046875 11.3515625 C-9.204747 10.69365057 -9.204747 10.69365057 -11.23046875 10.7890625 C-12.22046875 10.75619141 -12.22046875 10.75619141 -13.23046875 10.72265625 C-16.40202225 11.71996116 -17.43301731 13.61271995 -19.23046875 16.3515625 C-19.86839684 19.82357374 -19.86839684 19.82357374 -19.83984375 23.62109375 C-19.85638 24.30209641 -19.87291626 24.98309906 -19.88995361 25.68473816 C-19.93826178 27.84460621 -19.95976385 30.00377125 -19.98046875 32.1640625 C-20.00864319 33.63480067 -20.03857269 35.10550633 -20.0703125 36.57617188 C-20.14401271 40.16781664 -20.1936936 43.75932821 -20.23046875 47.3515625 C-24.19046875 47.3515625 -28.15046875 47.3515625 -32.23046875 47.3515625 C-32.23046875 31.8415625 -32.23046875 16.3315625 -32.23046875 0.3515625 C-28.27046875 0.3515625 -24.31046875 0.3515625 -20.23046875 0.3515625 C-19.90046875 2.0015625 -19.57046875 3.6515625 -19.23046875 5.3515625 C-18.28171875 4.5471875 -17.33296875 3.7428125 -16.35546875 2.9140625 C-11.36004883 -1.32118482 -6.33336594 -1.84122372 0 0 Z " fill="#F4F4F5" transform="translate(716.23046875,762.6484375)"/>
<path d="M0 0 C3.96 0 7.92 0 12 0 C12 16.83 12 33.66 12 51 C20.91 51 29.82 51 39 51 C39 54.3 39 57.6 39 61 C26.13 61 13.26 61 0 61 C0 40.87 0 20.74 0 0 Z " fill="#FCFDFC" transform="translate(297,748)"/>
<path d="M0 0 C0.66 0 1.32 0 2 0 C2.51046875 1.17755859 2.51046875 1.17755859 3.03125 2.37890625 C8.05320028 13.26425062 13.78827324 18.82155554 25 23 C25 23.66 25 24.32 25 25 C24.21496094 25.3403125 23.42992187 25.680625 22.62109375 26.03125 C11.73574938 31.05320028 6.17844446 36.78827324 2 48 C1.34 48 0.68 48 0 48 C-0.3403125 47.21496094 -0.680625 46.42992187 -1.03125 45.62109375 C-6.05320028 34.73574938 -11.78827324 29.17844446 -23 25 C-23 24.34 -23 23.68 -23 23 C-22.21496094 22.6596875 -21.42992187 22.319375 -20.62109375 21.96875 C-9.73574938 16.94679972 -4.17844446 11.21172676 0 0 Z " fill="#82868C" transform="translate(967,944)"/>
<path d="M0 0 C4.29 0 8.58 0 13 0 C13.02464347 6.53279339 13.04283291 13.06555998 13.05493164 19.59838867 C13.05997317 21.82267732 13.06680623 24.04696263 13.07543945 26.27124023 C13.08751298 29.46078309 13.09322996 32.65028229 13.09765625 35.83984375 C13.10281754 36.84087631 13.10797882 37.84190887 13.11329651 38.87327576 C13.11337204 39.79415482 13.11344757 40.71503387 13.11352539 41.66381836 C13.115746 42.47878281 13.11796661 43.29374725 13.12025452 44.13340759 C13 46 13 46 12 47 C8.04 47 4.08 47 0 47 C0 31.49 0 15.98 0 0 Z " fill="#E9EAEB" transform="translate(661,763)"/>
<path d="M0 0 C3.85544798 1.99657127 5.59805092 3.39707638 8 7 C8.6772783 12.08746258 8.82467221 16.55682364 6.25 21.0625 C1.80887201 24.88680466 -1.82693901 25.4924731 -7.58984375 25.390625 C-11.29194274 24.79060896 -12.8188954 22.93085931 -15 20 C-17.82605874 15.7609119 -17.66012246 11.97875497 -17 7 C-12.75820235 -0.02090646 -7.69995308 -0.99392863 0 0 Z " fill="#303640" transform="translate(426,285)"/>
<path d="M0 0 C3.15591067 2.58210873 5.40902301 4.5280662 6.21875 8.6171875 C6.2726096 12.93942001 6.29941724 16.24467381 3.5625 19.75 C-0.06159133 22.97141451 -2.42705202 24.01728324 -7.1875 24.625 C-12.05799943 24.02861231 -14.97862772 21.73326766 -18.125 18.0625 C-19.73123136 14.04692159 -20.05996194 10.50979982 -19.25 6.25 C-17.57041513 3.10411087 -15.25152647 0.98445275 -12.375 -1.125 C-7.67328643 -2.50785693 -4.31928681 -2.32576982 0 0 Z " fill="#2D343E" transform="translate(430.25,539.75)"/>
<path d="M0 0 C5.86950059 4.72820881 5.86950059 4.72820881 6.6015625 8.73828125 C6.78706559 13.21565139 6.19156109 16.28262669 3.25 19.8125 C-0.67640382 23.19103352 -3.70381376 24.47589696 -8.7890625 24.203125 C-12.10419553 23.54273993 -14.21989603 21.98116055 -16.75 19.8125 C-19.49637397 15.40137195 -19.42014565 10.85493738 -18.75 5.8125 C-14.58236499 -1.33201716 -7.56980142 -3.26877789 0 0 Z " fill="#2F3640" transform="translate(479.75,474.1875)"/>
<path d="M0 0 C2.92937654 1.81310142 5.43647949 3.87295899 7 7 C7.53013375 13.23926648 7.68427506 18.67826936 4 24 C0.33091443 26.44605705 -2.73618769 26.83946402 -7 26 C-9.69105198 23.82425584 -11.45532928 22.08934144 -13 19 C-14.03994013 9.07599989 -14.03994013 9.07599989 -11.953125 4.91015625 C-8.3290945 0.55066073 -5.58051551 -0.64390564 0 0 Z " fill="#121824" transform="translate(468,772)"/>
<path d="M0 0 C0.66 0.66 1.32 1.32 2 2 C2.33 1.34 2.66 0.68 3 0 C4.32 0 5.64 0 7 0 C7.14560195 3.72875388 7.23417043 7.45677434 7.3125 11.1875 C7.35439453 12.24259766 7.39628906 13.29769531 7.43945312 14.38476562 C7.56240428 22.17986872 7.56240428 22.17986872 4.80078125 26.20703125 C1.8132734 28.11953628 0.37855401 28.62857079 -3.125 28.5 C-4.39730469 28.48453125 -4.39730469 28.48453125 -5.6953125 28.46875 C-8.40239905 27.91815613 -9.35734749 27.19020335 -11 25 C-11 24.34 -11 23.68 -11 23 C-10.319375 23.165 -9.63875 23.33 -8.9375 23.5 C-5.56833481 24.07347493 -2.41178541 24.13122252 1 24 C2.29633621 22.93354885 2.29633621 22.93354885 2.0625 20.4375 C2.041875 19.633125 2.02125 18.82875 2 18 C1.01 18.66 0.02 19.32 -1 20 C-4.38568806 20.36017958 -6.3272019 20.38185838 -9.3125 18.6875 C-11.97138895 16.02861105 -12.2149317 13.23269327 -12.375 9.625 C-12.32185172 6.00501174 -12.05718438 5.08491014 -9.9375 1.9375 C-6.31310142 -0.45306076 -4.26372358 -0.5631333 0 0 Z " fill="#F0F0F0" transform="translate(491,891)"/>
<path d="M0 0 C0.66 0 1.32 0 2 0 C2.60328125 1.08539063 3.2065625 2.17078125 3.828125 3.2890625 C4.63528777 4.73444699 5.44258668 6.17975546 6.25 7.625 C6.64574219 8.33785156 7.04148437 9.05070312 7.44921875 9.78515625 C9.29125964 13.07667194 11.15521848 16.29171354 13.296875 19.3984375 C15 22 15 22 15 24 C5.76 24 -3.48 24 -13 24 C-10.89643204 18.74108011 -8.32321989 14.0788926 -5.5 9.1875 C-5.00113281 8.30384766 -4.50226562 7.42019531 -3.98828125 6.50976562 C-3.50746094 5.67509766 -3.02664063 4.84042969 -2.53125 3.98046875 C-2.09361328 3.21629639 -1.65597656 2.45212402 -1.20507812 1.66479492 C-0.80740234 1.1154126 -0.40972656 0.56603027 0 0 Z " fill="#363F48" transform="translate(614,468)"/>
<path d="M0 0 C3.22158976 0.82241288 4.32265261 1.82048142 6.21875 4.56640625 C6.69603171 7.50131588 6.59652063 10.35311053 6.46875 13.31640625 C6.45070313 14.10917969 6.43265625 14.90195312 6.4140625 15.71875 C6.36708082 17.66848973 6.29534044 19.61760503 6.21875 21.56640625 C4.89875 21.56640625 3.57875 21.56640625 2.21875 21.56640625 C1.88875 20.90640625 1.55875 20.24640625 1.21875 19.56640625 C0.22875 20.22640625 -0.76125 20.88640625 -1.78125 21.56640625 C-4.90151907 21.89143428 -6.92872535 22.07792104 -9.65625 20.44140625 C-11.30979531 17.68549741 -11.17490568 15.71565173 -10.78125 12.56640625 C-9.14967328 10.38579101 -8.19567366 9.6601705 -5.51953125 9.0546875 C-4.71902344 8.99667969 -3.91851562 8.93867187 -3.09375 8.87890625 C-1.88138672 8.78029297 -1.88138672 8.78029297 -0.64453125 8.6796875 C-0.02964844 8.64230469 0.58523438 8.60492187 1.21875 8.56640625 C0.88875 7.24640625 0.55875 5.92640625 0.21875 4.56640625 C-2.75125 4.07140625 -2.75125 4.07140625 -5.78125 3.56640625 C-5.78125 4.22640625 -5.78125 4.88640625 -5.78125 5.56640625 C-7.43125 5.56640625 -9.08125 5.56640625 -10.78125 5.56640625 C-7.85798931 0.48247462 -5.48339173 0.00938937 0 0 Z " fill="#E8E9EA" transform="translate(445.78125,890.43359375)"/>
<path d="M0 0 C3.22158976 0.82241288 4.32265261 1.82048142 6.21875 4.56640625 C6.69603171 7.50131588 6.59652063 10.35311053 6.46875 13.31640625 C6.45070313 14.10917969 6.43265625 14.90195312 6.4140625 15.71875 C6.36708082 17.66848973 6.29534044 19.61760503 6.21875 21.56640625 C4.89875 21.56640625 3.57875 21.56640625 2.21875 21.56640625 C1.88875 20.90640625 1.55875 20.24640625 1.21875 19.56640625 C0.22875 20.22640625 -0.76125 20.88640625 -1.78125 21.56640625 C-4.90151907 21.89143428 -6.92872535 22.07792104 -9.65625 20.44140625 C-11.30979531 17.68549741 -11.17490568 15.71565173 -10.78125 12.56640625 C-9.14967328 10.38579101 -8.19567366 9.6601705 -5.51953125 9.0546875 C-4.71902344 8.99667969 -3.91851563 8.93867187 -3.09375 8.87890625 C-1.88138672 8.78029297 -1.88138672 8.78029297 -0.64453125 8.6796875 C-0.02964844 8.64230469 0.58523438 8.60492187 1.21875 8.56640625 C0.88875 7.24640625 0.55875 5.92640625 0.21875 4.56640625 C-1.44736905 4.52368525 -3.11507885 4.52576793 -4.78125 4.56640625 C-5.11125 4.89640625 -5.44125 5.22640625 -5.78125 5.56640625 C-7.44742115 5.60704457 -9.11513095 5.60912725 -10.78125 5.56640625 C-7.85798931 0.48247462 -5.48339173 0.00938937 0 0 Z " fill="#E4E5E6" transform="translate(564.78125,890.43359375)"/>
<path d="M0 0 C2.94490403 2.27003019 4.57891165 3.80151778 5.8125 7.3125 C5.874375 7.869375 5.93625 8.42625 6 9 C2.75091983 8.63899109 1.34484249 8.36709039 -0.9375 5.9375 C-2.90721802 3.73861345 -2.90721802 3.73861345 -6 3.4375 C-9.10790804 3.77257109 -9.10790804 3.77257109 -11.375 5.9375 C-14.08162967 11.03845592 -13.68400256 15.60599104 -12.125 21.0625 C-9.47098241 23.48233957 -8.33344169 23.29257954 -4.8125 23.3125 C-3.20696626 23.23210847 -1.60184626 23.1352403 0 23 C0.33 21.68 0.66 20.36 1 19 C2.65 19 4.3 19 6 19 C4.82191948 22.3529984 3.80593388 24.7552529 1 27 C-2.73579437 28.24526479 -6.12634003 28.65171217 -10 28 C-13.24879374 26.28674115 -15.4165893 23.92815339 -17.375 20.8125 C-18.65997764 15.0301006 -18.95621857 9.94785264 -16.3125 4.5625 C-11.33340719 -0.95487312 -7.12213377 -2.12889868 0 0 Z " fill="#E9E9EA" transform="translate(521,884)"/>
<path d="M0 0 C1.32 0 2.64 0 4 0 C4.33 3.3 4.66 6.6 5 10 C5.66 9.34 6.32 8.68 7 8 C10.41726397 7.68358667 13.02632213 7.5836925 16.2109375 8.9453125 C19.11976217 12.28601507 18.42145577 15.92418625 18.25 20.1875 C18.23195313 21.03248047 18.21390625 21.87746094 18.1953125 22.74804688 C18.14820586 24.83251573 18.07646233 26.91640144 18 29 C16.68 29 15.36 29 14 29 C13.67 23.72 13.34 18.44 13 13 C8.11785113 11.41074435 8.11785113 11.41074435 5 14 C4.61588725 16.609621 4.39706803 19.0058074 4.3125 21.625 C4.27833984 22.33140625 4.24417969 23.0378125 4.20898438 23.765625 C4.12648692 25.50985688 4.06156665 27.25490395 4 29 C2.68 29 1.36 29 0 29 C0 19.43 0 9.86 0 0 Z " fill="#E0E1E2" transform="translate(531,883)"/>
<path d="M0 0 C2.475 0.495 2.475 0.495 5 1 C5.33 0.67 5.66 0.34 6 0 C11.73211781 -0.56381487 11.73211781 -0.56381487 14 0 C16.34447688 2.09168111 17.7939243 3.74462211 18.3137207 6.91113281 C18.39324934 9.05916332 18.34977157 11.16549251 18.25 13.3125 C18.23195313 14.05306641 18.21390625 14.79363281 18.1953125 15.55664062 C18.14847337 17.3716571 18.07673789 19.18600166 18 21 C16.35 21 14.7 21 13 21 C13 15.39 13 9.78 13 4 C7.52174919 3.5527864 7.52174919 3.5527864 5 5 C4.68758545 7.71446979 4.48663408 10.33909361 4.375 13.0625 C4.33632813 13.82111328 4.29765625 14.57972656 4.2578125 15.36132812 C4.16326438 17.24047195 4.08053244 19.12020336 4 21 C2.68 21 1.36 21 0 21 C0 14.07 0 7.14 0 0 Z " fill="#D6D7D8" transform="translate(457,891)"/>
<path d="M0 0 C2.475 0.495 2.475 0.495 5 1 C5.33 0.67 5.66 0.34 6 0 C13.38997226 -0.4767724 13.38997226 -0.4767724 15.60717773 1.25610352 C17.33909121 3.4245624 17.35136376 4.48590313 17.29296875 7.23046875 C17.28330078 8.03291016 17.27363281 8.83535156 17.26367188 9.66210938 C17.23853516 10.49548828 17.21339844 11.32886719 17.1875 12.1875 C17.16719727 13.4549707 17.16719727 13.4549707 17.14648438 14.74804688 C17.11115799 16.83230384 17.05735139 18.91623277 17 21 C15.68 21 14.36 21 13 21 C12.67 15.72 12.34 10.44 12 5 C7.52297636 3.93462795 7.52297636 3.93462795 5 4 C4.67 9.61 4.34 15.22 4 21 C2.68 21 1.36 21 0 21 C0 14.07 0 7.14 0 0 Z " fill="#E6E7E8" transform="translate(586,891)"/>
<path d="M0 0 C1.47583955 0.0001591 2.95168467 0.00585225 4.42749023 0.01586914 C5.20293686 0.01728409 5.97838348 0.01869904 6.77732849 0.02015686 C9.26361893 0.02577194 11.74982059 0.03832693 14.23608398 0.05102539 C15.91772331 0.05603845 17.59936405 0.06060169 19.28100586 0.06469727 C23.41189965 0.07574626 27.54272674 0.09302094 31.67358398 0.11352539 C31.67358398 3.74352539 31.67358398 7.37352539 31.67358398 11.11352539 C31.34358398 11.11352539 31.01358398 11.11352539 30.67358398 11.11352539 C30.67358398 7.81352539 30.67358398 4.51352539 30.67358398 1.11352539 C26.34951512 1.15779262 22.02683727 1.22774139 17.70361328 1.32104492 C16.23432948 1.3491915 14.76489604 1.37043748 13.29541016 1.38452148 C11.17720284 1.40604069 9.06078245 1.45272873 6.94311523 1.50415039 C5.67056885 1.52509766 4.39802246 1.54604492 3.08691406 1.56762695 C-2.39896787 2.44499138 -5.19005908 5.73061728 -8.51391602 9.92602539 C-12.44452405 14.53045195 -17.04012804 18.15616149 -22.32641602 21.11352539 C-23.31641602 21.11352539 -24.30641602 21.11352539 -25.32641602 21.11352539 C-25.32641602 20.12352539 -25.32641602 19.13352539 -25.32641602 18.11352539 C-26.31641602 17.78352539 -27.30641602 17.45352539 -28.32641602 17.11352539 C-23.73268305 13.19366648 -18.69157648 10.10478703 -13.57641602 6.92602539 C-11.85175208 5.85033294 -10.12775638 4.77356811 -8.40454102 3.69555664 C-7.64560547 3.22351807 -6.88666992 2.75147949 -6.10473633 2.26513672 C-2.75193854 0.09391937 -2.75193854 0.09391937 0 0 Z " fill="#565C62" transform="translate(567.326416015625,552.886474609375)"/>
<path d="M0 0 C-0.66 0.99 -1.32 1.98 -2 3 C-2 2.34 -2 1.68 -2 1 C-5.10579494 1.02279401 -8.20790484 1.10007819 -11.3125 1.1875 C-12.63411133 1.19620117 -12.63411133 1.19620117 -13.98242188 1.20507812 C-16.4203652 1.28850584 -18.6307674 1.41477807 -21 2 C-23.06416013 4.30789194 -23.06416013 4.30789194 -24 7 C-25.62053812 8.38903267 -27.29705213 9.71332828 -29 11 C-30.44522183 12.2410641 -31.8823139 13.49163838 -33.3125 14.75 C-34.35857422 15.67039062 -34.35857422 15.67039062 -35.42578125 16.609375 C-35.94527344 17.06828125 -36.46476563 17.5271875 -37 18 C-37.33 17.01 -37.66 16.02 -38 15 C-37.67 14.34 -37.34 13.68 -37 13 C-36.34 13 -35.68 13 -35 13 C-35 12.01 -35 11.02 -35 10 C-35.556875 10.7425 -36.11375 11.485 -36.6875 12.25 C-38.9737254 14.96875453 -41.02133758 17.06386943 -44 19 C-47.05191378 18.82560493 -47.81258515 18.18741485 -50 16 C-48.2984375 15.1028125 -48.2984375 15.1028125 -46.5625 14.1875 C-43.2790944 12.43906111 -40.35718432 10.53574745 -37.4609375 8.21875 C-25.38216703 -1.07284343 -14.90158977 -1.34545229 0 0 Z " fill="#444B52" transform="translate(596,488)"/>
<path d="M0 0 C1.32 0 2.64 0 4 0 C4 7.92 4 15.84 4 24 C8.62 24 13.24 24 18 24 C18 25.32 18 26.64 18 28 C12.06 28 6.12 28 0 28 C0 18.76 0 9.52 0 0 Z " fill="#DDE0E1" transform="translate(414,884)"/>
<path d="M0 0 C0.89203125 0.00902344 1.7840625 0.01804687 2.703125 0.02734375 C3.37859375 0.03894531 4.0540625 0.05054688 4.75 0.0625 C5.10288435 3.8560068 5.03393415 5.62191253 2.9375 8.875 C0.05375368 11.75874632 -1.70608924 12.02364923 -5.75 12.3125 C-9.25 12.0625 -9.25 12.0625 -11.1875 10.875 C-12.63718434 8.40200907 -12.67317323 6.88365488 -12.25 4.0625 C-9.19531189 -0.21406335 -4.89248143 -0.06437476 0 0 Z " fill="#19202B" transform="translate(634.25,788.9375)"/>
<path d="M0 0 C0.36567164 6.33830846 0.36567164 6.33830846 -1.3125 9.375 C-3.89936776 11.86605784 -5.95753691 11.99772519 -9.5 12.1875 C-13 12 -13 12 -16 10 C-16.1875 6.375 -16.1875 6.375 -16 3 C-10.4477112 0.1647887 -6.19887485 -0.37952295 0 0 Z " fill="#131A25" transform="translate(370,789)"/>
<path d="M0 0 C3.4375 0.75 3.4375 0.75 5.4375 2.75 C6.1075702 8.89231015 6.1075702 8.89231015 3.875 11.75 C0.38607191 13.18135511 -1.96005972 12.683966 -5.5625 11.75 C-7.5625 8.75 -7.5625 8.75 -7.375 5.1875 C-6.23622678 0.36961331 -4.88730584 -0.34296883 0 0 Z " fill="#F1F2F2" transform="translate(668.5625,744.25)"/>
<path d="M0 0 C1.8125 1.0625 1.8125 1.0625 3 3 C3.50815187 6.9926218 3.59038159 9.12536061 1.3125 12.5 C-1 14 -1 14 -3.625 13.875 C-6 13 -6 13 -8 11 C-8.56005895 3.94325718 -8.56005895 3.94325718 -6.8125 1 C-4.33474158 -0.36703913 -2.78844081 -0.41826612 0 0 Z " fill="#1A202B" transform="translate(491,894)"/>
<path d="M0 0 C0.33 0 0.66 0 1 0 C2.44709623 10.75496207 -0.69971208 16.89960411 -6.78515625 25.26708984 C-8.72760219 28.03788592 -10.37915687 30.93949795 -12.0625 33.875 C-12.63097656 34.86242187 -13.19945312 35.84984375 -13.78515625 36.8671875 C-14.18605469 37.57101562 -14.58695312 38.27484375 -15 39 C-17.11402719 37.32639514 -17.92117774 36.34822967 -18.5234375 33.6875 C-17.76630003 29.80010761 -15.35114171 27.68524958 -12.625 25 C-9.20097317 21.57597317 -6.55184454 18.68003642 -5 14 C-3.5 12.1875 -3.5 12.1875 -2 11 C-1.34 11 -0.68 11 0 11 C0 7.37 0 3.74 0 0 Z " fill="#3E444B" transform="translate(470,316)"/>
<path d="M0 0 C0 0.66 0 1.32 0 2 C2.31 2 4.62 2 7 2 C6.51171875 8.0546875 6.51171875 8.0546875 6 10 C2.53076119 12.31282587 1.07794425 12.42478586 -3 12 C-4.875 10.875 -4.875 10.875 -6 9 C-6.40618007 5.75055942 -6.59626824 3.85181176 -4.6875 1.125 C-3 0 -3 0 0 0 Z " fill="#E0E2E2" transform="translate(441,900)"/>
<path d="M0 0 C5.1254607 0.44185006 5.1254607 0.44185006 7.625 3.3125 C8.12707062 6.38583957 7.99980782 9.39660552 7.875 12.5 C7.85695313 13.34498047 7.83890625 14.18996094 7.8203125 15.06054688 C7.77320586 17.14501573 7.70146233 19.22890144 7.625 21.3125 C6.305 21.3125 4.985 21.3125 3.625 21.3125 C3.295 16.0325 2.965 10.7525 2.625 5.3125 C-2.08558562 3.9403958 -2.08558562 3.9403958 -5.375 5.3125 C-5.375 0.88175932 -4.32073599 0.40006815 0 0 Z " fill="#E9E9EA" transform="translate(541.375,890.6875)"/>
<path d="M0 0 C0.66 0.33 1.32 0.66 2 1 C2.4140625 4.16015625 2.4140625 4.16015625 2.625 8.0625 C2.69976562 9.35285156 2.77453125 10.64320313 2.8515625 11.97265625 C2.90054687 12.97167969 2.94953125 13.97070312 3 15 C3.33 14.34 3.66 13.68 4 13 C4.66 13 5.32 13 6 13 C6.5 16.0625 6.5 16.0625 6 20 C4.11956135 22.03070202 2.09185885 23.65093909 -0.0859375 25.35546875 C-2.36546849 27.31400456 -3.29357426 29.08599384 -4 32 C-7 27.5 -7 27.5 -7 24 C-5.61566791 22.27176151 -4.12283219 20.87313467 -2.4453125 19.4296875 C0.02508523 16.98599677 0.00496279 14.81836171 0.09765625 11.42578125 C0.09103244 10.05465342 0.07914198 8.68354283 0.0625 7.3125 C0.05798828 6.61060547 0.05347656 5.90871094 0.04882812 5.18554688 C0.03706927 3.45699462 0.01913454 1.72848635 0 0 Z " fill="#383E48" transform="translate(409,456)"/>
<path d="M0 0 C2.5625 0.3125 2.5625 0.3125 4.375 1.5 C5.98775784 3.96157776 5.9959014 5.42315736 5.5625 8.3125 C4.4375 10.1875 4.4375 10.1875 2.5625 11.3125 C-2.87228261 10.87771739 -2.87228261 10.87771739 -4.4375 9.3125 C-4.625 5.875 -4.625 5.875 -4.4375 2.3125 C-2.4375 0.3125 -2.4375 0.3125 0 0 Z " fill="#DC099F" transform="translate(555.4375,611.6875)"/>
<path d="M0 0 C1.32 0 2.64 0 4 0 C4 0.66 4 1.32 4 2 C4.66 2 5.32 2 6 2 C5.67 2.99 5.34 3.98 5 5 C4.77202438 7.73289293 4.58331813 10.45042204 4.4375 13.1875 C4.39431641 13.93708984 4.35113281 14.68667969 4.30664062 15.45898438 C4.20077315 17.30578375 4.0999024 19.15286834 4 21 C2.68 21 1.36 21 0 21 C0 14.07 0 7.14 0 0 Z " fill="#E5E5E7" transform="translate(457,891)"/>
<path d="M0 0 C2.9375 0.1875 2.9375 0.1875 3.9375 1.1875 C4.21064815 6.92361111 4.21064815 6.92361111 3.9375 9.1875 C1.9375 11.1875 1.9375 11.1875 -0.5625 11.4375 C-3.0625 11.1875 -3.0625 11.1875 -5.0625 9.1875 C-5.3125 5.6875 -5.3125 5.6875 -5.0625 2.1875 C-3.0625 0.1875 -3.0625 0.1875 0 0 Z " fill="#0FBDD0" transform="translate(866.0625,755.8125)"/>
<path d="M0 0 C2.4375 0.75 2.4375 0.75 4.4375 2.75 C4.80546448 5.62012296 4.81259409 7.15774618 3.25 9.625 C1.4375 10.75 1.4375 10.75 -1.125 10.5625 C-3.5625 9.75 -3.5625 9.75 -5.5625 7.75 C-5.875 4.75 -5.875 4.75 -5.5625 1.75 C-2.5625 -0.25 -2.5625 -0.25 0 0 Z " fill="#0BB8CD" transform="translate(99.5625,585.25)"/>
<path d="M0 0 C0 0.66 0 1.32 0 2 C0.66 2 1.32 2 2 2 C2 2.99 2 3.98 2 5 C1.40832031 5.09796875 0.81664062 5.1959375 0.20703125 5.296875 C-4.88564853 6.26057949 -8.17978449 7.29214377 -12 11 C-12.598125 11.5775 -13.19625 12.155 -13.8125 12.75 C-14.4003125 13.36875 -14.4003125 13.36875 -15 14 C-15.66 13.67 -16.32 13.34 -17 13 C-17.33 13.99 -17.66 14.98 -18 16 C-18.66 15.34 -19.32 14.68 -20 14 C-19.34 14 -18.68 14 -18 14 C-17.835 13.113125 -17.67 12.22625 -17.5 11.3125 C-15.4069104 6.69026047 -12.37712345 5.29432865 -8 3 C-6.88625 2.401875 -5.7725 1.80375 -4.625 1.1875 C-2 0 -2 0 0 0 Z " fill="#3D444C" transform="translate(392,442)"/>
<path d="M0 0 C2 2 2 2 2.25 5 C2 8 2 8 0 10 C-3 10.3125 -3 10.3125 -6 10 C-8.1387261 6.79191085 -8.47730962 5.72301503 -8 2 C-4.77626323 -0.14915785 -3.73296326 -0.38286803 0 0 Z " fill="#D00896" transform="translate(836,838)"/>
<path d="M0 0 C3.5 0.125 3.5 0.125 4.5 1.125 C4.6875 4.5625 4.6875 4.5625 4.5 8.125 C2.5 10.125 2.5 10.125 0.0625 10.4375 C-2.5 10.125 -2.5 10.125 -4.375 9 C-5.5 7.125 -5.5 7.125 -5.25 4 C-4.2460815 0.15164577 -4.2460815 0.15164577 0 0 Z " fill="#10C2D4" transform="translate(230.5,643.875)"/>
<path d="M0 0 C1.32 0 2.64 0 4 0 C4 6.93 4 13.86 4 21 C2.68 21 1.36 21 0 21 C0 14.07 0 7.14 0 0 Z " fill="#E1E2E3" transform="translate(576,891)"/>
<path d="M0 0 C0.33 0 0.66 0 1 0 C1 10.56 1 21.12 1 32 C-3.95 32.33 -8.9 32.66 -14 33 C-14.66 34.98 -15.32 36.96 -16 39 C-16.33 39 -16.66 39 -17 39 C-17.49230769 32.6 -17.49230769 32.6 -15 29.5625 C-14.34 29.046875 -13.68 28.53125 -13 28 C-10 29 -10 29 -9 30 C-8.34 29.34 -7.68 28.68 -7 28 C-4.875 28.375 -4.875 28.375 -3 29 C-3 29.66 -3 30.32 -3 31 C-2.01 31 -1.02 31 0 31 C0 20.77 0 10.54 0 0 Z " fill="#575D62" transform="translate(470,363)"/>
<path d="M0 0 C0.99 0.103125 1.98 0.20625 3 0.3125 C5 3.3125 5 3.3125 4.75 5.875 C4 8.3125 4 8.3125 2 10.3125 C-0.5 10.5625 -0.5 10.5625 -3 10.3125 C-5 8.3125 -5 8.3125 -5.25 5.3125 C-4.90578549 1.18192588 -4.11441953 0.42858537 0 0 Z " fill="#D70AA5" transform="translate(545,239.6875)"/>
<path d="M0 0 C0.66 0 1.32 0 2 0 C1.67 2.31 1.34 4.62 1 7 C-0.16917969 6.97679687 -1.33835937 6.95359375 -2.54296875 6.9296875 C-4.09113942 6.91092179 -5.63931703 6.89272245 -7.1875 6.875 C-7.95642578 6.85824219 -8.72535156 6.84148437 -9.51757812 6.82421875 C-13.8149434 6.78733149 -17.07901831 7.0041496 -21 9 C-20.67 8.01 -20.34 7.02 -20 6 C-19.34 6 -18.68 6 -18 6 C-17.67 5.01 -17.34 4.02 -17 3 C-12.931203 2.22499105 -9.1391232 1.90801948 -5 2 C-4.01 2 -3.02 2 -2 2 C-1.34 1.34 -0.68 0.68 0 0 Z " fill="#454C51" transform="translate(405,363)"/>
<path d="M0 0 C2.5 0.25 2.5 0.25 4.5 2.25 C4.75 5.25 4.75 5.25 4.5 8.25 C2.5 10.25 2.5 10.25 0 10.5 C-2.5 10.25 -2.5 10.25 -4.5 8.25 C-4.75 5.25 -4.75 5.25 -4.5 2.25 C-2.5 0.25 -2.5 0.25 0 0 Z " fill="#DE099D" transform="translate(174.5,516.75)"/>
<path d="M0 0 C3 0.25 3 0.25 5 2.25 C5.25 4.75 5.25 4.75 5 7.25 C3 9.25 3 9.25 0 9.5 C-3 9.25 -3 9.25 -5 7.25 C-5.25 4.75 -5.25 4.75 -5 2.25 C-3 0.25 -3 0.25 0 0 Z " fill="#DDC936" transform="translate(321,383.75)"/>
<path d="M0 0 C3 0.25 3 0.25 5 2.25 C5.25 4.75 5.25 4.75 5 7.25 C3 9.25 3 9.25 0 9.5 C-3 9.25 -3 9.25 -5 7.25 C-5.25 4.75 -5.25 4.75 -5 2.25 C-3 0.25 -3 0.25 0 0 Z " fill="#E00CA5" transform="translate(297,31.75)"/>
<path d="M0 0 C0 0.99 0 1.98 0 3 C-0.99 3.495 -0.99 3.495 -2 4 C-2 4.99 -2 5.98 -2 7 C1.5219721 7.08004482 4.61981469 7.04005702 8 6 C7.75 7.875 7.75 7.875 7 10 C3.84136006 12.33973329 0.83339454 12.40780793 -3 12 C-4.875 10.875 -4.875 10.875 -6 9 C-6.40618007 5.75055942 -6.59626824 3.85181176 -4.6875 1.125 C-3 0 -3 0 0 0 Z " fill="#EBECED" transform="translate(560,900)"/>
<path d="M0 0 C1.485 0.99 1.485 0.99 3 2 C3.34057617 3.87939453 3.34057617 3.87939453 3.29296875 6.1328125 C3.28330078 6.93847656 3.27363281 7.74414062 3.26367188 8.57421875 C3.23853516 9.41597656 3.21339844 10.25773438 3.1875 11.125 C3.17396484 11.97449219 3.16042969 12.82398438 3.14648438 13.69921875 C3.11108219 15.79974837 3.05727401 17.89995293 3 20 C1.68 20 0.36 20 -1 20 C-1.02689449 17.04160645 -1.04678741 14.08345573 -1.0625 11.125 C-1.07087891 10.28324219 -1.07925781 9.44148437 -1.08789062 8.57421875 C-1.09111328 7.76855469 -1.09433594 6.96289062 -1.09765625 6.1328125 C-1.10289307 5.38918457 -1.10812988 4.64555664 -1.11352539 3.87939453 C-1 2 -1 2 0 0 Z " fill="#E1E1E2" transform="translate(600,892)"/>
<path d="M0 0 C1.32 0.33 2.64 0.66 4 1 C3.67 1.66 3.34 2.32 3 3 C2.67 6.63 2.34 10.26 2 14 C-9.22 14 -20.44 14 -32 14 C-32 13.67 -32 13.34 -32 13 C-21.44 13 -10.88 13 0 13 C-0.23333333 6.36666667 -0.23333333 6.36666667 -3 4 C-2.01 2.68 -1.02 1.36 0 0 Z " fill="#4D545B" transform="translate(596,535)"/>
<path d="M0 0 C2.5 0.25 2.5 0.25 4.5 2.25 C4.75 4.75 4.75 4.75 4.5 7.25 C2.5 9.25 2.5 9.25 0 9.5 C-2.5 9.25 -2.5 9.25 -4.5 7.25 C-4.75 4.75 -4.75 4.75 -4.5 2.25 C-2.5 0.25 -2.5 0.25 0 0 Z " fill="#B50E85" transform="translate(634.5,117.75)"/>
<path d="M0 0 C0.81210937 0.47566406 0.81210937 0.47566406 1.640625 0.9609375 C4.4157149 2.18307974 6.73208098 2.40943436 9.75 2.625 C11.22726562 2.73714844 11.22726562 2.73714844 12.734375 2.8515625 C13.48203125 2.90054687 14.2296875 2.94953125 15 3 C15.66 5.31 16.32 7.62 17 10 C11.72 8.35 6.44 6.7 1 5 C0.67 3.35 0.34 1.7 0 0 Z " fill="#4E525A" transform="translate(383,479)"/>
<path d="M0 0 C0.33 1.32 0.66 2.64 1 4 C2.65 3.34 4.3 2.68 6 2 C6 2.99 6 3.98 6 5 C5.34 5.66 4.68 6.32 4 7 C3.67 7.66 3.34 8.32 3 9 C1.54052295 8.93993922 0.08220728 8.8511311 -1.375 8.75 C-2.59316406 8.68039062 -2.59316406 8.68039062 -3.8359375 8.609375 C-6 8 -6 8 -7.2890625 5.953125 C-7.52367187 5.30859375 -7.75828125 4.6640625 -8 4 C-2.25 0 -2.25 0 0 0 Z " fill="#2A313B" transform="translate(548,459)"/>
<path d="M0 0 C4.95 0 9.9 0 15 0 C13.68 2.31 12.36 4.62 11 7 C10.34 7 9.68 7 9 7 C9 6.34 9 5.68 9 5 C7.02 5.99 7.02 5.99 5 7 C4.67 5.68 4.34 4.36 4 3 C3.34 3 2.68 3 2 3 C2 2.34 2 1.68 2 1 C1.34 0.67 0.68 0.34 0 0 Z " fill="#383F48" transform="translate(603,568)"/>
<path d="M0 0 C0.99 0.33 1.98 0.66 3 1 C2.35330586 2.34313399 1.68096422 3.67391178 1 5 C0.649375 5.78375 0.29875 6.5675 -0.0625 7.375 C-2.95728984 11.29697333 -6.87762495 13.48509195 -11 16 C-9.38677027 12.44413762 -7.24743046 9.45249622 -4.9375 6.3125 C-4.22464844 5.33925781 -3.51179688 4.36601562 -2.77734375 3.36328125 C-1 1 -1 1 0 0 Z " fill="#454C53" transform="translate(425,380)"/>
<path d="M0 0 C0.125 2.875 0.125 2.875 0 6 C-2 8 -2 8 -5.3125 8.25 C-8.72514084 8.01863452 -10.95465935 7.4765288 -14 6 C-11.13670134 4.54541807 -8.2452241 3.18381902 -5.3125 1.875 C-4.52488281 1.52179687 -3.73726563 1.16859375 -2.92578125 0.8046875 C-1 0 -1 0 0 0 Z " fill="#2B323D" transform="translate(494,908)"/>
<path d="M0 0 C2.5625 0.1875 2.5625 0.1875 4.5625 2.1875 C4.1875 4.3125 4.1875 4.3125 3.5625 6.1875 C1.93831255 6.26840971 0.31298255 6.32664995 -1.3125 6.375 C-2.21742188 6.40980469 -3.12234375 6.44460938 -4.0546875 6.48046875 C-5.23417969 6.33544922 -5.23417969 6.33544922 -6.4375 6.1875 C-7.0975 5.1975 -7.7575 4.2075 -8.4375 3.1875 C-7.633125 2.878125 -6.82875 2.56875 -6 2.25 C-0.70416667 0.05416667 -0.70416667 0.05416667 0 0 Z " fill="#1E232E" transform="translate(562.4375,893.8125)"/>
<path d="M0 0 C2.3125 1.3125 2.3125 1.3125 3.3125 4.3125 C3.9725 4.6425 4.6325 4.9725 5.3125 5.3125 C-3.1025 5.8075 -3.1025 5.8075 -11.6875 6.3125 C-10.3675 5.9825 -9.0475 5.6525 -7.6875 5.3125 C-7.605 4.69375 -7.5225 4.075 -7.4375 3.4375 C-6.6875 1.3125 -6.6875 1.3125 -4.9375 -0.0625 C-2.6875 -0.6875 -2.6875 -0.6875 0 0 Z " fill="#34466D" transform="translate(543.6875,675.6875)"/>
<path d="M0 0 C4.84948108 0.1162185 8.0694647 0.28271237 12 3.3125 C13.78173807 5.70671053 14.67537556 7.07838001 15 10 C10.60469719 9.51163302 8.9781 8.17023548 6 5 C3.86690808 3.76487921 3.86690808 3.76487921 2 3 C2.66 2.67 3.32 2.34 4 2 C2.68 1.34 1.36 0.68 0 0 Z " fill="#D9DBDC" transform="translate(512,883)"/>
<path d="M0 0 C2.875 -0.125 2.875 -0.125 6 0 C6.66 0.66 7.32 1.32 8 2 C7.67 3.32 7.34 4.64 7 6 C4.03 6 1.06 6 -2 6 C-2 5.34 -2 4.68 -2 4 C-2.99 3.34 -3.98 2.68 -5 2 C-3.35 2 -1.7 2 0 2 C0 1.34 0 0.68 0 0 Z " fill="#272C37" transform="translate(440,894)"/>
<path d="M0 0 C0.33 0 0.66 0 1 0 C1.3125 3.25 1.3125 3.25 1 7 C-1.125 8.9375 -1.125 8.9375 -4 11 C-5.61216013 13.01116976 -7.09510551 15.08217816 -8.5703125 17.1953125 C-10 19 -10 19 -13 21 C-12.42012094 17.63670142 -11.42075735 16.3276513 -9 14 C-8.54625 13.21625 -8.0925 12.4325 -7.625 11.625 C-6 9 -6 9 -3.375 6.4375 C-1.11338793 4.11637182 -0.3487646 3.13888138 0 0 Z " fill="#2E353E" transform="translate(469,320)"/>
<path d="M0 0 C2.871297 0.03873588 4.01535912 0.1363094 6.21484375 2.03125 C6.82005859 2.75828125 6.82005859 2.75828125 7.4375 3.5 C6.4475 4.49 5.4575 5.48 4.4375 6.5 C3.7775 5.84 3.1175 5.18 2.4375 4.5 C-0.10440002 4.2499227 -0.10440002 4.2499227 -2.5625 4.5 C-2.8925 4.83 -3.2225 5.16 -3.5625 5.5 C-5.22867115 5.54063832 -6.89638095 5.542721 -8.5625 5.5 C-6.23202052 1.4469922 -4.59291332 0.11968504 0 0 Z " fill="#F2F1F0" transform="translate(562.5625,890.5)"/>
<path d="M0 0 C0.33 0 0.66 0 1 0 C2.01396266 10.123532 0.28365412 16.00116478 -6 24 C-6.66 23.01 -7.32 22.02 -8 21 C-6.67332027 17.08978606 -5.4046995 13.51651702 -2 11 C-1.34 11 -0.68 11 0 11 C0 7.37 0 3.74 0 0 Z " fill="#5E6369" transform="translate(470,316)"/>
<path d="M0 0 C2.625 0.375 2.625 0.375 5 1 C5.625 3.375 5.625 3.375 6 6 C5.34 6.66 4.68 7.32 4 8 C1.375 7.625 1.375 7.625 -1 7 C-1.625 4.625 -1.625 4.625 -2 2 C-1.34 1.34 -0.68 0.68 0 0 Z " fill="#930675" transform="translate(646,827)"/>
<path d="M0 0 C-0.375 2.4375 -0.375 2.4375 -1 5 C-3.70879335 6.35439668 -6.00933268 6.06501451 -9 6 C-9.33 4.68 -9.66 3.36 -10 2 C-6.3558226 -0.4294516 -4.28758728 -0.16179575 0 0 Z " fill="#383E45" transform="translate(567,902)"/>
<path d="M0 0 C0.66 0.33 1.32 0.66 2 1 C-0.08831345 4.95680442 -2.19619811 7.58783295 -6 10 C-9.05191378 9.82560493 -9.81258515 9.18741485 -12 7 C-11.38511719 6.66226562 -10.77023437 6.32453125 -10.13671875 5.9765625 C-9.32847656 5.53054688 -8.52023437 5.08453125 -7.6875 4.625 C-6.88699219 4.18414062 -6.08648438 3.74328125 -5.26171875 3.2890625 C-3.46472057 2.26486665 -1.72099292 1.14732862 0 0 Z " fill="#4B5057" transform="translate(558,497)"/>
<path d="M0 0 C2.375 -0.125 2.375 -0.125 5 0 C7 2 7 2 7 6 C4.125 6.625 4.125 6.625 1 7 C0.34 6.34 -0.32 5.68 -1 5 C-0.625 2.375 -0.625 2.375 0 0 Z " fill="#B8A030" transform="translate(820,582)"/>
<path d="M0 0 C-0.875 4.875 -0.875 4.875 -2 6 C-4.33297433 6.04092937 -6.66705225 6.04241723 -9 6 C-8.67 4.35 -8.34 2.7 -8 1 C-5.23735711 0.40267181 -2.83967231 0 0 0 Z " fill="#1C222D" transform="translate(448,902)"/>
<path d="M0 0 C0.66 0.33 1.32 0.66 2 1 C2.4525425 3.62534587 2.7441739 6.10399459 2.9375 8.75 C3.01806641 9.46671875 3.09863281 10.1834375 3.18164062 10.921875 C3.48318481 14.97224623 3.28164199 16.65529676 0.6796875 19.83984375 C-0.64675781 20.90912109 -0.64675781 20.90912109 -2 22 C-2.928125 22.928125 -3.85625 23.85625 -4.8125 24.8125 C-5.534375 25.534375 -6.25625 26.25625 -7 27 C-6.52570343 22.73133091 -3.96478822 20.89066852 -1 18 C0.2062252 14.38132441 0.10816918 11.07493749 0.0625 7.3125 C0.05798828 6.61060547 0.05347656 5.90871094 0.04882812 5.18554688 C0.03706927 3.45699462 0.01913454 1.72848635 0 0 Z " fill="#747A7F" transform="translate(409,456)"/>
<path d="M0 0 C2.375 0.25 2.375 0.25 5 1 C6.1875 3 6.1875 3 7 5 C7.66 5.33 8.32 5.66 9 6 C9 6.99 9 7.98 9 9 C5.2089881 7.55049545 1.6125362 5.84827434 -2 4 C-2 3.34 -2 2.68 -2 2 C-1.34 2 -0.68 2 0 2 C0 1.34 0 0.68 0 0 Z " fill="#3F464D" transform="translate(537,527)"/>
<path d="M0 0 C2.625 0.375 2.625 0.375 5 1 C5.042721 2.66611905 5.04063832 4.33382885 5 6 C4 7 4 7 1.4375 7.0625 C0.2309375 7.0315625 0.2309375 7.0315625 -1 7 C-1.625 4.625 -1.625 4.625 -2 2 C-1.34 1.34 -0.68 0.68 0 0 Z " fill="#AE932B" transform="translate(332,375)"/>
<path d="M0 0 C-0.825 0.53625 -1.65 1.0725 -2.5 1.625 C-6.4540456 4.25472411 -10.22311074 7.124196 -14 10 C-13.67 8.35 -13.34 6.7 -13 5 C-12.34 5 -11.68 5 -11 5 C-10.67 4.01 -10.34 3.02 -10 2 C-3.73913043 -1.24637681 -3.73913043 -1.24637681 0 0 Z " fill="#323841" transform="translate(572,496)"/>
<path d="M0 0 C3.69230769 0.69230769 3.69230769 0.69230769 5 2 C5.04063832 3.66617115 5.042721 5.33388095 5 7 C2.625 7.125 2.625 7.125 0 7 C-0.66 6.34 -1.32 5.68 -2 5 C-1.46428571 1.46428571 -1.46428571 1.46428571 0 0 Z " fill="#B7A72D" transform="translate(895,173)"/>
<path d="M0 0 C0.33 0 0.66 0 1 0 C1 4.29 1 8.58 1 13 C-1.97 13 -4.94 13 -8 13 C-8 12.67 -8 12.34 -8 12 C-6.35 12 -4.7 12 -3 12 C-2.43460483 9.81919007 -1.93161299 7.64951657 -1.5 5.4375 C-1 3 -1 3 0 0 Z " fill="#40454B" transform="translate(539,470)"/>
<path d="M0 0 C1.66611905 -0.042721 3.33382885 -0.04063832 5 0 C6 1 6 1 6.0625 3.5625 C6.041875 4.366875 6.02125 5.17125 6 6 C4.125 6.625 4.125 6.625 2 7 C0 5 0 5 -0.125 2.375 C-0.08375 1.59125 -0.0425 0.8075 0 0 Z " fill="#A30F83" transform="translate(950,420)"/>
<path d="M0 0 C0.66 0.66 1.32 1.32 2 2 C0.35 3.65 -1.3 5.3 -3 7 C-6.16115776 5.63016497 -6.9927092 5.0109362 -9 2 C-7.54536519 1.61090015 -6.08608793 1.23911971 -4.625 0.875 C-3.40683594 0.56175781 -3.40683594 0.56175781 -2.1640625 0.2421875 C-1.44992187 0.16226563 -0.73578125 0.08234375 0 0 Z " fill="#333B45" transform="translate(630,566)"/>
<path d="M0 0 C0.66 0.33 1.32 0.66 2 1 C-0.64 5.62 -3.28 10.24 -6 15 C-6.33 15 -6.66 15 -7 15 C-6.72694671 8.44672101 -4.18788859 4.93069452 0 0 Z " fill="#4E555B" transform="translate(461,340)"/>
<path d="M0 0 C1.67542976 0.28604898 3.34385343 0.61781233 5 1 C5 2.32 5 3.64 5 5 C3.35 5.33 1.7 5.66 0 6 C-0.38218767 4.34385343 -0.71395102 2.67542976 -1 1 C-0.67 0.67 -0.34 0.34 0 0 Z " fill="#C5AD32" transform="translate(90,495)"/>
<path d="M0 0 C1.2065625 0.0309375 1.2065625 0.0309375 2.4375 0.0625 C2.4375 1.7125 2.4375 3.3625 2.4375 5.0625 C0.7875 5.3925 -0.8625 5.7225 -2.5625 6.0625 C-2.94468767 4.40635343 -3.27645102 2.73792976 -3.5625 1.0625 C-2.5625 0.0625 -2.5625 0.0625 0 0 Z " fill="#0695B0" transform="translate(247.5625,921.9375)"/>
<path d="M0 0 C1.64826111 2.96687001 2.44271087 5.65626525 3 9 C2.34 9 1.68 9 1 9 C1.33 10.98 1.66 12.96 2 15 C0 12 0 12 0 9 C-0.99 8.67 -1.98 8.34 -3 8 C-2.01 5.36 -1.02 2.72 0 0 Z " fill="#42484E" transform="translate(386,371)"/>
<path d="M0 0 C1.65 0.33 3.3 0.66 5 1 C4.67 2.65 4.34 4.3 4 6 C2.35 5.67 0.7 5.34 -1 5 C-0.67 3.35 -0.34 1.7 0 0 Z " fill="#0890A0" transform="translate(356,846)"/>
<path d="M0 0 C1.67542976 0.28604898 3.34385343 0.61781233 5 1 C5 2.32 5 3.64 5 5 C3.35 5.33 1.7 5.66 0 6 C-0.38218767 4.34385343 -0.71395102 2.67542976 -1 1 C-0.67 0.67 -0.34 0.34 0 0 Z " fill="#B7A92E" transform="translate(897,963)"/>
<path d="M0 0 C-2.45251778 3.67877667 -3.85741343 3.78159219 -8 5 C-9.67163195 5.65411685 -11.34015202 6.31653318 -13 7 C-12.67 6.01 -12.34 5.02 -12 4 C-11.34 4 -10.68 4 -10 4 C-9.67 3.01 -9.34 2.02 -9 1 C-6.04335481 -0.4783226 -3.25770263 -0.06032783 0 0 Z " fill="#323940" transform="translate(397,365)"/>
<path d="M0 0 C1.98 1.65 3.96 3.3 6 5 C4.68 5.99 3.36 6.98 2 8 C1.67 7.34 1.34 6.68 1 6 C-1.01669827 4.86649466 -1.01669827 4.86649466 -3 4 C-2.01 2.68 -1.02 1.36 0 0 Z " fill="#E6E8E9" transform="translate(464,299)"/>
<path d="M0 0 C4.44936709 -0.36075949 4.44936709 -0.36075949 6.8125 1.1875 C8.36678206 3.55982525 8.22537188 5.22041345 8 8 C7.01 8.495 7.01 8.495 6 9 C3 4.375 3 4.375 3 1 C2.01 0.67 1.02 0.34 0 0 Z " fill="#C1078E" transform="translate(553,612)"/>
<path d="M0 0 C0.66 0.33 1.32 0.66 2 1 C-0.31 3.31 -2.62 5.62 -5 8 C-5.99 7.67 -6.98 7.34 -8 7 C-8 7.66 -8 8.32 -8 9 C-8.99 8.67 -9.98 8.34 -11 8 C-7.45960866 5.0843836 -3.8373228 2.49872182 0 0 Z " fill="#565D62" transform="translate(550,562)"/>
<path d="M0 0 C0.66 0.33 1.32 0.66 2 1 C1.38245741 2.31602523 0.75571258 3.62773556 0.125 4.9375 C-0.22304688 5.66839844 -0.57109375 6.39929688 -0.9296875 7.15234375 C-2 9 -2 9 -4 10 C-4.25 6.6875 -4.25 6.6875 -4 3 C-2 1.0625 -2 1.0625 0 0 Z " fill="#394049" transform="translate(636,546)"/>
<path d="M0 0 C0.33 0.99 0.66 1.98 1 3 C0.34 3.66 -0.32 4.32 -1 5 C-1.33 5.66 -1.66 6.32 -2 7 C-4.31 6.34 -6.62 5.68 -9 5 C-8.34 4.67 -7.68 4.34 -7 4 C-7 3.34 -7 2.68 -7 2 C-4.69 1.34 -2.38 0.68 0 0 Z " fill="#3F464E" transform="translate(553,461)"/>
<path d="M0 0 C0 0.66 0 1.32 0 2 C0.66 2 1.32 2 2 2 C2 2.99 2 3.98 2 5 C-0.64 5.33 -3.28 5.66 -6 6 C-3.84615385 0 -3.84615385 0 0 0 Z " fill="#454E55" transform="translate(392,442)"/>
<path d="M0 0 C2.64 0 5.28 0 8 0 C7.67 1.65 7.34 3.3 7 5 C4.69 4.67 2.38 4.34 0 4 C0 2.68 0 1.36 0 0 Z " fill="#EDEEEE" transform="translate(592,891)"/>
<path d="M0 0 C0.598125 0.20625 1.19625 0.4125 1.8125 0.625 C1.8125 1.945 1.8125 3.265 1.8125 4.625 C0.8225 4.955 -0.1675 5.285 -1.1875 5.625 C-2.5075 4.305 -3.8275 2.985 -5.1875 1.625 C-2.1875 -0.375 -2.1875 -0.375 0 0 Z " fill="#89872A" transform="translate(519.1875,792.375)"/>
<path d="M0 0 C0.721875 0.144375 1.44375 0.28875 2.1875 0.4375 C3.5796875 0.7159375 3.5796875 0.7159375 5 1 C6.66666667 1.33333333 8.33333333 1.66666667 10 2 C6.61958998 5.01822323 6.61958998 5.01822323 3.875 4.9375 C1.45972898 3.72986449 0.9566253 2.47128202 0 0 Z " fill="#E8E8E9" transform="translate(480,914)"/>
<path d="M0 0 C0.33 0 0.66 0 1 0 C2.30156133 6.21857082 1.47499835 10.22500385 -1 16 C-1.33 16 -1.66 16 -2 16 C-2.2396943 10.36718401 -1.38529821 5.45461169 0 0 Z " fill="#1D7C83" transform="translate(776,474)"/>
<path d="M0 0 C0.66 0.33 1.32 0.66 2 1 C-0.97 5.95 -0.97 5.95 -4 11 C-4.66 10.01 -5.32 9.02 -6 8 C-4.02 5.36 -2.04 2.72 0 0 Z " fill="#4F555C" transform="translate(468,329)"/>
<path d="M0 0 C1.32 0 2.64 0 4 0 C4 0.99 4 1.98 4 3 C3.01 3 2.02 3 1 3 C1 3.66 1 4.32 1 5 C-0.65 5 -2.3 5 -4 5 C-2.25 2.5 -2.25 2.5 0 0 Z " fill="#F1F2F2" transform="translate(439,891)"/>
<path d="M0 0 C2.375 -0.1875 2.375 -0.1875 5 0 C5.66 0.99 6.32 1.98 7 3 C4.69 3.33 2.38 3.66 0 4 C0 2.68 0 1.36 0 0 Z " fill="#101624" transform="translate(559,904)"/>
<path d="M0 0 C0.66 0.66 1.32 1.32 2 2 C1.34 2.66 0.68 3.32 0 4 C-0.99 4 -1.98 4 -3 4 C-3 4.66 -3 5.32 -3 6 C-4.62626404 7.38232443 -6.2925002 8.71937515 -8 10 C-8 8.68 -8 7.36 -8 6 C-6.25 4.296875 -6.25 4.296875 -4 2.75 C-3.2575 2.22921875 -2.515 1.7084375 -1.75 1.171875 C-1.1725 0.78515625 -0.595 0.3984375 0 0 Z " fill="#414A51" transform="translate(413,398)"/>
<path d="M0 0 C1.98 0 3.96 0 6 0 C6 3.96 6 7.92 6 12 C5.67 12 5.34 12 5 12 C4.67 9.03 4.34 6.06 4 3 C3.34 3 2.68 3 2 3 C2 2.34 2 1.68 2 1 C1.34 0.67 0.68 0.34 0 0 Z " fill="#444952" transform="translate(525,554)"/>
<path d="M0 0 C1.65 0.33 3.3 0.66 5 1 C5 1.66 5 2.32 5 3 C5.99 3.33 6.98 3.66 8 4 C4.7 4 1.4 4 -2 4 C-1.34 2.68 -0.68 1.36 0 0 Z " fill="#4B5157" transform="translate(462,391)"/>
<path d="M0 0 C0.99 0.33 1.98 0.66 3 1 C2.67 1.66 2.34 2.32 2 3 C3.98 3 5.96 3 8 3 C8 3.33 8 3.66 8 4 C4.37 4 0.74 4 -3 4 C-2.01 2.68 -1.02 1.36 0 0 Z " fill="#575F65" transform="translate(604,530)"/>
<path d="M0 0 C3.36720387 1.39332574 4.9859524 2.9789286 7 6 C4.625 6.125 4.625 6.125 2 6 C1.34 5.34 0.68 4.68 0 4 C0 2.68 0 1.36 0 0 Z " fill="#3E464D" transform="translate(570,477)"/>
<path d="M0 0 C0.99 0.33 1.98 0.66 3 1 C2.34 2.32 1.68 3.64 1 5 C-0.65 5 -2.3 5 -4 5 C-2.68 3.35 -1.36 1.7 0 0 Z " fill="#E5E5E6" transform="translate(558,891)"/>
<path d="M0 0 C1.32 0.33 2.64 0.66 4 1 C4 2.32 4 3.64 4 5 C2.68 5 1.36 5 0 5 C0 3.35 0 1.7 0 0 Z " fill="#2E362F" transform="translate(803,590)"/>
<path d="M0 0 C0.66 0.33 1.32 0.66 2 1 C1.40049704 4.68266103 0.75241109 8.34543185 0 12 C-0.33 12 -0.66 12 -1 12 C-1.14285714 3.42857143 -1.14285714 3.42857143 0 0 Z " fill="#BB46AD" transform="translate(245,394)"/>
<path d="M0 0 C2.475 0.495 2.475 0.495 5 1 C4.67 1.99 4.34 2.98 4 4 C2.68 4 1.36 4 0 4 C0 2.68 0 1.36 0 0 Z " fill="#F3F3F4" transform="translate(576,883)"/>
<path d="M0 0 C1.32 0 2.64 0 4 0 C3.67 1.32 3.34 2.64 3 4 C1.68 4.33 0.36 4.66 -1 5 C-0.67 3.35 -0.34 1.7 0 0 Z " fill="#717F63" transform="translate(963,691)"/>
<path d="M0 0 C1.65 0 3.3 0 5 0 C4.01 1.98 3.02 3.96 2 6 C1.34 5.67 0.68 5.34 0 5 C0 3.35 0 1.7 0 0 Z " fill="#353A44" transform="translate(542,569)"/>
<path d="M0 0 C0.33 0.99 0.66 1.98 1 3 C-1.31 4.65 -3.62 6.3 -6 8 C-4.55746343 4.63408134 -2.66735273 2.48952921 0 0 Z " fill="#363D44" transform="translate(424,385)"/>
<path d="M0 0 C0.33 1.32 0.66 2.64 1 4 C-0.8125 5.5625 -0.8125 5.5625 -3 7 C-3.99 6.67 -4.98 6.34 -6 6 C-5.01 5.67 -4.02 5.34 -3 5 C-3 4.34 -3 3.68 -3 3 C-1.5 1.375 -1.5 1.375 0 0 Z " fill="#343D45" transform="translate(415,530)"/>
<path d="M0 0 C0.66 0.33 1.32 0.66 2 1 C-0.31 3.31 -2.62 5.62 -5 8 C-5.33 7.01 -5.66 6.02 -6 5 C-4.02 3.35 -2.04 1.7 0 0 Z " fill="#383E47" transform="translate(492,412)"/>
<path d="M0 0 C0.99 0.33 1.98 0.66 3 1 C1.37660195 2.70884005 -0.29319053 4.37446717 -2 6 C-2.66 6 -3.32 6 -4 6 C-3.34 4.68 -2.68 3.36 -2 2 C-1.34 2 -0.68 2 0 2 C0 1.34 0 0.68 0 0 Z " fill="#2A343D" transform="translate(410,402)"/>
<path d="M0 0 C0 3.23861295 -0.6250851 5.09740189 -2 8 C-2.99 8.495 -2.99 8.495 -4 9 C-4.25 6.75 -4.25 6.75 -4 4 C-2 1.6875 -2 1.6875 0 0 Z " fill="#353C46" transform="translate(456,343)"/>
</svg>
